<svg id="svg" version="1.1" xmlns="http://www.w3.org/2000/svg" xmlns:xlink="http://www.w3.org/1999/xlink" width="400" height="56.59655831739962" viewBox="0, 0, 400,56.59655831739962"><g id="svgg"><path id="path0" d="M20.646 0.092 C 20.634 0.133,20.614 0.223,20.602 0.292 C 20.589 0.360,20.518 0.512,20.444 0.628 C 20.371 0.744,20.273 1.042,20.228 1.291 C 20.183 1.539,20.069 1.790,19.976 1.848 C 19.882 1.906,19.813 2.021,19.823 2.102 C 19.839 2.233,19.631 2.721,19.133 3.721 C 19.031 3.926,19.053 4.115,19.199 4.295 C 19.360 4.494,19.363 4.532,19.208 4.439 C 19.077 4.360,19.000 4.410,19.000 4.573 C 19.000 4.716,18.912 4.833,18.806 4.833 C 18.699 4.833,18.655 4.877,18.708 4.930 C 18.761 4.984,18.666 5.338,18.496 5.718 C 18.264 6.235,18.236 6.441,18.385 6.535 C 18.518 6.620,18.488 6.662,18.292 6.664 C 18.131 6.666,17.991 6.742,17.979 6.833 C 17.957 7.011,17.901 7.255,17.834 7.458 C 17.812 7.527,17.803 7.640,17.814 7.708 C 17.824 7.777,17.746 7.833,17.639 7.833 C 17.532 7.833,17.491 7.880,17.549 7.938 C 17.606 7.995,17.543 8.256,17.408 8.517 C 17.224 8.872,17.215 8.978,17.373 8.940 C 17.489 8.911,17.530 8.918,17.465 8.956 C 17.245 9.081,16.628 10.183,16.723 10.279 C 16.775 10.331,16.708 10.482,16.574 10.616 C 16.440 10.751,16.364 11.040,16.405 11.266 C 16.447 11.494,16.410 11.631,16.323 11.577 C 16.186 11.493,16.135 11.617,16.180 11.925 C 16.187 11.976,16.067 12.210,15.913 12.446 C 15.730 12.724,15.710 12.826,15.855 12.737 C 15.977 12.661,15.911 12.811,15.708 13.069 C 15.504 13.328,15.379 13.605,15.429 13.686 C 15.479 13.767,15.447 13.833,15.358 13.833 C 15.269 13.833,15.216 14.019,15.241 14.245 C 15.266 14.472,15.222 14.618,15.143 14.569 C 15.064 14.520,14.991 14.560,14.979 14.657 C 14.941 14.984,14.906 15.082,14.690 15.471 C 14.571 15.685,14.517 15.970,14.569 16.105 C 14.622 16.243,14.591 16.306,14.498 16.249 C 14.350 16.157,14.261 16.377,14.314 16.708 C 14.324 16.777,14.255 16.833,14.159 16.833 C 14.064 16.833,14.004 16.927,14.028 17.042 C 14.051 17.156,13.977 17.419,13.862 17.625 C 13.748 17.831,13.697 18.000,13.748 18.000 C 13.799 18.000,13.736 18.169,13.607 18.375 C 13.478 18.581,13.389 18.914,13.408 19.115 C 13.427 19.316,13.376 19.466,13.294 19.449 C 13.130 19.413,12.569 20.769,12.583 21.167 C 12.588 21.304,12.477 21.516,12.338 21.637 C 12.184 21.770,12.173 21.812,12.309 21.742 C 12.463 21.662,12.444 21.764,12.248 22.063 C 12.091 22.303,12.027 22.501,12.106 22.503 C 12.185 22.504,12.175 22.560,12.083 22.628 C 11.837 22.809,11.314 24.001,11.412 24.159 C 11.458 24.234,11.389 24.385,11.258 24.493 C 11.127 24.602,11.058 24.790,11.105 24.912 C 11.151 25.034,11.108 25.183,11.009 25.245 C 10.909 25.306,10.871 25.426,10.924 25.512 C 10.977 25.597,10.928 25.667,10.815 25.667 C 10.703 25.667,10.658 25.714,10.716 25.772 C 10.774 25.830,10.733 26.036,10.625 26.230 C 10.517 26.424,10.445 26.640,10.465 26.708 C 10.484 26.777,10.419 26.833,10.319 26.833 C 10.220 26.833,10.173 26.927,10.214 27.042 C 10.256 27.156,10.168 27.392,10.020 27.566 C 9.818 27.802,9.803 27.900,9.958 27.955 C 10.230 28.050,10.230 28.346,9.958 28.292 C 9.844 28.269,9.769 28.344,9.792 28.458 C 9.815 28.573,9.763 28.667,9.678 28.667 C 9.592 28.667,9.556 28.854,9.598 29.083 C 9.651 29.378,9.599 29.500,9.420 29.500 C 9.281 29.500,9.167 29.616,9.167 29.758 C 9.167 29.900,9.052 30.238,8.912 30.508 C 8.767 30.790,8.731 31.000,8.829 31.000 C 8.923 31.000,8.845 31.155,8.656 31.344 C 8.364 31.636,8.345 31.731,8.531 31.960 C 8.651 32.109,8.668 32.181,8.567 32.121 C 8.305 31.964,7.750 33.159,7.821 33.727 C 7.845 33.911,7.788 33.992,7.682 33.926 C 7.572 33.858,7.542 33.916,7.603 34.075 C 7.658 34.217,7.615 34.333,7.508 34.333 C 7.401 34.333,7.360 34.408,7.417 34.500 C 7.473 34.592,7.428 34.667,7.315 34.667 C 7.203 34.667,7.161 34.717,7.223 34.778 C 7.284 34.840,7.216 35.071,7.071 35.292 C 6.926 35.513,6.853 35.811,6.908 35.955 C 6.967 36.108,6.865 36.351,6.662 36.540 C 6.471 36.718,6.344 36.949,6.379 37.055 C 6.415 37.161,6.347 37.344,6.229 37.462 C 6.111 37.580,6.059 37.794,6.115 37.938 C 6.170 38.082,6.111 38.265,5.983 38.344 C 5.856 38.422,5.736 38.689,5.717 38.937 C 5.698 39.185,5.598 39.440,5.494 39.504 C 5.390 39.568,5.313 39.669,5.322 39.729 C 5.332 39.788,5.225 40.059,5.085 40.330 C 4.945 40.601,4.847 40.882,4.867 40.953 C 4.887 41.025,4.811 41.252,4.696 41.458 C 4.582 41.665,4.537 41.833,4.597 41.833 C 4.656 41.833,4.576 42.030,4.419 42.271 C 4.261 42.511,4.223 42.652,4.333 42.583 C 4.444 42.515,4.396 42.670,4.227 42.929 C 4.058 43.187,3.943 43.542,3.973 43.717 C 4.010 43.938,3.963 43.997,3.819 43.908 C 3.674 43.818,3.641 43.860,3.712 44.045 C 3.769 44.192,3.743 44.336,3.656 44.365 C 3.568 44.394,3.463 44.594,3.421 44.809 C 3.380 45.025,3.249 45.320,3.131 45.466 C 2.951 45.689,2.956 45.708,3.167 45.591 C 3.363 45.481,3.374 45.497,3.221 45.663 C 3.114 45.779,3.067 45.980,3.117 46.110 C 3.172 46.253,3.117 46.328,2.979 46.298 C 2.825 46.266,2.768 46.378,2.805 46.643 C 2.840 46.893,2.795 46.996,2.680 46.925 C 2.579 46.862,2.489 46.945,2.475 47.115 C 2.461 47.281,2.441 47.500,2.430 47.602 C 2.420 47.705,2.320 47.899,2.207 48.034 C 2.095 48.170,2.052 48.330,2.113 48.390 C 2.173 48.451,2.140 48.500,2.039 48.500 C 1.934 48.500,1.888 48.679,1.931 48.917 C 1.984 49.211,1.932 49.333,1.753 49.333 C 1.611 49.333,1.500 49.480,1.500 49.667 C 1.500 50.132,1.470 50.221,1.227 50.463 C 1.110 50.580,1.061 50.797,1.117 50.946 C 1.180 51.108,1.098 51.305,0.912 51.441 C 0.742 51.565,0.657 51.667,0.722 51.667 C 0.788 51.667,0.726 51.892,0.583 52.167 C 0.441 52.442,0.373 52.667,0.432 52.667 C 0.490 52.667,0.414 52.856,0.263 53.087 C -0.142 53.706,-0.082 56.111,0.344 56.339 C 0.517 56.431,2.629 56.500,5.296 56.500 L 9.947 56.500 10.170 55.792 C 10.293 55.402,10.391 54.918,10.387 54.716 C 10.383 54.514,10.460 54.364,10.558 54.383 C 10.656 54.401,10.748 54.249,10.762 54.045 C 10.776 53.840,10.863 53.578,10.956 53.461 C 11.048 53.345,11.103 53.119,11.077 52.959 C 11.051 52.799,11.099 52.625,11.184 52.572 C 11.269 52.520,11.288 52.396,11.227 52.296 C 11.160 52.188,11.193 52.163,11.308 52.234 C 11.414 52.300,11.511 52.255,11.525 52.135 C 11.581 51.656,11.605 51.571,11.777 51.250 C 11.874 51.067,11.940 50.751,11.922 50.549 C 11.905 50.347,11.952 50.221,12.028 50.268 C 12.144 50.339,12.231 50.095,12.139 49.958 C 12.123 49.935,12.215 49.729,12.342 49.500 C 12.625 48.990,13.014 48.005,13.066 47.667 C 13.087 47.529,13.183 47.267,13.279 47.083 C 13.375 46.900,13.440 46.585,13.422 46.383 C 13.405 46.181,13.452 46.054,13.528 46.101 C 13.604 46.148,13.672 46.126,13.679 46.052 C 13.727 45.533,13.865 45.076,13.987 45.034 C 14.066 45.006,14.090 44.826,14.039 44.633 C 13.972 44.375,14.005 44.317,14.162 44.414 C 14.305 44.502,14.351 44.470,14.300 44.316 C 14.258 44.190,14.320 43.990,14.438 43.872 C 14.556 43.754,14.613 43.554,14.565 43.429 C 14.517 43.303,14.559 43.150,14.658 43.089 C 14.757 43.027,14.796 42.907,14.743 42.822 C 14.690 42.736,14.739 42.667,14.851 42.667 C 14.964 42.667,15.009 42.620,14.951 42.562 C 14.894 42.505,14.962 42.235,15.102 41.964 C 15.243 41.692,15.315 41.360,15.264 41.226 C 15.213 41.092,15.236 41.023,15.316 41.073 C 15.396 41.122,15.554 40.938,15.668 40.665 L 15.874 40.167 26.113 40.167 C 32.753 40.167,36.318 40.224,36.252 40.330 C 36.123 40.538,36.472 41.204,36.652 41.093 C 36.726 41.047,36.766 41.195,36.741 41.421 C 36.716 41.648,36.764 41.833,36.848 41.833 C 36.932 41.833,36.984 41.890,36.965 41.958 C 36.874 42.282,37.178 43.179,37.345 43.076 C 37.456 43.007,37.508 43.084,37.479 43.273 C 37.417 43.674,38.001 45.186,38.177 45.077 C 38.250 45.032,38.365 45.082,38.431 45.190 C 38.504 45.308,38.479 45.340,38.369 45.272 C 38.258 45.203,38.197 45.291,38.212 45.496 C 38.226 45.682,38.297 45.833,38.369 45.833 C 38.441 45.833,38.491 45.890,38.480 45.958 C 38.469 46.027,38.479 46.140,38.501 46.208 C 38.601 46.517,38.628 46.615,38.750 47.138 C 38.845 47.542,38.922 47.633,39.031 47.472 C 39.136 47.317,39.167 47.376,39.132 47.667 C 39.105 47.897,39.164 48.069,39.263 48.051 C 39.362 48.034,39.427 48.184,39.408 48.385 C 39.389 48.586,39.478 48.919,39.607 49.125 C 39.736 49.331,39.799 49.500,39.748 49.500 C 39.697 49.500,39.749 49.669,39.863 49.875 C 39.977 50.081,40.053 50.313,40.031 50.389 C 40.009 50.466,40.142 50.773,40.326 51.072 C 40.511 51.371,40.613 51.665,40.553 51.724 C 40.493 51.784,40.536 51.833,40.649 51.833 C 40.761 51.833,40.810 51.903,40.757 51.988 C 40.704 52.074,40.743 52.194,40.842 52.255 C 40.941 52.317,40.985 52.466,40.938 52.588 C 40.891 52.710,40.960 52.898,41.091 53.007 C 41.222 53.115,41.293 53.263,41.249 53.335 C 41.124 53.538,41.761 54.848,41.916 54.708 C 41.991 54.639,42.006 54.715,41.948 54.875 C 41.891 55.035,41.921 55.167,42.015 55.167 C 42.109 55.167,42.140 55.242,42.083 55.333 C 42.027 55.425,42.079 55.501,42.198 55.503 C 42.375 55.505,42.374 55.532,42.194 55.646 C 42.017 55.758,42.029 55.809,42.253 55.895 C 42.417 55.958,42.495 56.107,42.439 56.251 C 42.356 56.468,42.981 56.500,47.347 56.500 L 52.349 56.500 52.748 56.070 C 52.984 55.815,53.105 55.533,53.045 55.376 C 52.978 55.201,53.009 55.153,53.138 55.232 C 53.254 55.304,53.333 55.252,53.333 55.107 C 53.333 54.730,53.146 54.326,53.010 54.410 C 52.944 54.452,52.876 54.376,52.861 54.243 C 52.846 54.109,52.821 53.887,52.806 53.750 C 52.790 53.612,52.703 53.500,52.611 53.500 C 52.519 53.500,52.494 53.451,52.554 53.390 C 52.614 53.330,52.580 53.180,52.478 53.057 C 52.376 52.934,52.342 52.833,52.402 52.833 C 52.462 52.833,52.418 52.665,52.303 52.458 C 52.189 52.252,52.089 52.046,52.082 52.000 C 52.025 51.646,51.573 50.667,51.467 50.667 C 51.393 50.667,51.333 50.560,51.333 50.431 C 51.333 50.301,51.240 50.157,51.125 50.110 C 50.962 50.045,50.964 50.023,51.131 50.013 C 51.303 50.003,51.305 49.926,51.139 49.625 C 51.025 49.419,50.926 49.175,50.919 49.083 C 50.894 48.759,50.376 47.733,50.095 47.452 C 49.938 47.295,49.888 47.167,49.983 47.167 C 50.078 47.167,50.113 47.055,50.061 46.918 C 50.008 46.781,49.879 46.718,49.774 46.778 C 49.669 46.838,49.639 46.825,49.707 46.750 C 49.775 46.675,49.737 46.499,49.624 46.358 C 49.454 46.149,49.459 46.128,49.651 46.244 C 49.920 46.406,49.790 46.126,49.350 45.596 C 49.203 45.420,49.172 45.328,49.281 45.391 C 49.403 45.462,49.372 45.258,49.198 44.852 C 49.045 44.492,48.862 44.232,48.793 44.275 C 48.723 44.318,48.667 44.214,48.667 44.043 C 48.667 43.873,48.573 43.632,48.458 43.509 C 48.290 43.328,48.294 43.309,48.475 43.412 C 48.662 43.519,48.664 43.474,48.483 43.145 C 48.363 42.928,48.260 42.675,48.254 42.583 C 48.228 42.195,47.965 41.668,47.837 41.748 C 47.760 41.795,47.738 41.680,47.787 41.493 C 47.844 41.275,47.802 41.170,47.672 41.201 C 47.560 41.228,47.401 41.077,47.320 40.867 C 47.217 40.601,47.227 40.517,47.352 40.595 C 47.456 40.659,47.440 40.539,47.314 40.312 C 47.194 40.094,47.089 39.879,47.082 39.833 C 47.011 39.375,46.602 38.500,46.459 38.500 C 46.359 38.500,46.327 38.451,46.387 38.390 C 46.448 38.330,46.414 38.180,46.311 38.057 C 46.209 37.934,46.191 37.832,46.271 37.831 C 46.351 37.829,46.327 37.772,46.219 37.702 C 46.110 37.633,45.982 37.362,45.934 37.101 C 45.887 36.840,45.727 36.492,45.580 36.329 C 45.432 36.166,45.330 35.932,45.353 35.808 C 45.376 35.684,45.257 35.283,45.089 34.917 C 44.921 34.550,44.776 34.137,44.767 34.000 C 44.758 33.862,44.666 33.765,44.564 33.784 C 44.462 33.803,44.382 33.691,44.386 33.534 C 44.400 33.010,44.134 32.334,43.956 32.444 C 43.845 32.512,43.815 32.422,43.873 32.198 C 43.930 31.981,43.892 31.859,43.775 31.881 C 43.667 31.901,43.601 31.749,43.625 31.532 C 43.652 31.277,43.601 31.187,43.474 31.266 C 43.355 31.340,43.327 31.312,43.401 31.192 C 43.466 31.087,43.463 30.908,43.393 30.795 C 43.323 30.682,43.255 30.442,43.242 30.261 C 43.228 30.081,43.135 29.906,43.035 29.873 C 42.934 29.839,42.898 29.692,42.954 29.545 C 43.025 29.362,42.993 29.318,42.851 29.406 C 42.722 29.485,42.659 29.448,42.682 29.308 C 42.725 29.048,42.577 28.609,42.228 27.958 C 42.092 27.706,42.042 27.498,42.116 27.495 C 42.190 27.492,42.109 27.383,41.937 27.253 C 41.760 27.119,41.667 26.906,41.722 26.763 C 41.775 26.624,41.723 26.413,41.605 26.295 C 41.486 26.177,41.421 25.987,41.459 25.874 C 41.497 25.760,41.447 25.667,41.347 25.667 C 41.248 25.667,41.181 25.610,41.198 25.542 C 41.215 25.473,41.091 25.117,40.923 24.750 C 40.755 24.383,40.608 24.008,40.597 23.917 C 40.545 23.493,40.296 23.004,40.170 23.081 C 40.094 23.128,40.073 23.005,40.125 22.808 C 40.190 22.561,40.158 22.485,40.026 22.567 C 39.837 22.684,39.802 22.594,39.767 21.917 C 39.758 21.733,39.663 21.600,39.557 21.620 C 39.444 21.641,39.382 21.487,39.409 21.246 C 39.434 21.021,39.353 20.752,39.229 20.649 C 39.105 20.546,39.045 20.396,39.095 20.314 C 39.145 20.233,39.104 20.167,39.003 20.167 C 38.901 20.167,38.834 20.073,38.852 19.958 C 38.871 19.844,38.837 19.619,38.776 19.458 C 38.716 19.298,38.630 19.049,38.585 18.906 C 38.539 18.763,38.419 18.697,38.317 18.760 C 38.193 18.837,38.166 18.763,38.238 18.538 C 38.303 18.334,38.244 18.101,38.089 17.947 C 37.949 17.806,37.880 17.573,37.935 17.429 C 37.991 17.283,37.950 17.167,37.841 17.167 C 37.734 17.167,37.701 17.079,37.768 16.972 C 37.850 16.838,37.794 16.813,37.587 16.892 C 37.327 16.992,37.316 16.971,37.507 16.741 C 37.692 16.519,37.689 16.450,37.489 16.323 C 37.358 16.240,37.308 16.171,37.379 16.169 C 37.450 16.168,37.385 15.979,37.235 15.750 C 37.085 15.521,37.010 15.333,37.068 15.333 C 37.126 15.333,37.060 15.159,36.920 14.945 C 36.780 14.731,36.716 14.506,36.777 14.445 C 36.839 14.384,36.797 14.333,36.685 14.333 C 36.572 14.333,36.527 14.258,36.583 14.167 C 36.640 14.075,36.602 14.000,36.500 14.000 C 36.398 14.000,36.359 13.927,36.414 13.838 C 36.469 13.749,36.382 13.431,36.222 13.130 C 36.062 12.829,35.925 12.546,35.918 12.500 C 35.911 12.454,35.811 12.248,35.697 12.042 C 35.582 11.835,35.531 11.667,35.583 11.667 C 35.636 11.667,35.585 11.498,35.470 11.292 C 35.261 10.915,35.226 10.816,35.188 10.490 C 35.176 10.393,35.084 10.365,34.982 10.428 C 34.858 10.504,34.834 10.426,34.910 10.188 C 34.977 9.977,34.950 9.833,34.845 9.833 C 34.747 9.833,34.683 9.777,34.702 9.708 C 34.722 9.640,34.634 9.396,34.507 9.167 C 34.381 8.938,34.271 8.712,34.264 8.667 C 34.256 8.621,34.188 8.604,34.113 8.629 C 34.037 8.654,33.988 8.504,34.004 8.296 C 34.043 7.792,33.835 7.167,33.629 7.167 C 33.539 7.167,33.507 7.056,33.559 6.921 C 33.611 6.786,33.525 6.601,33.368 6.509 C 33.211 6.418,33.141 6.341,33.211 6.338 C 33.281 6.336,33.231 6.077,33.100 5.764 C 32.969 5.450,32.905 5.150,32.959 5.097 C 33.012 5.044,32.964 5.000,32.851 5.000 C 32.739 5.000,32.693 4.925,32.750 4.833 C 32.807 4.742,32.769 4.667,32.667 4.667 C 32.564 4.667,32.525 4.594,32.580 4.505 C 32.636 4.416,32.456 3.891,32.182 3.338 C 31.908 2.785,31.736 2.332,31.800 2.331 C 31.864 2.329,31.827 2.272,31.719 2.202 C 31.610 2.133,31.486 1.888,31.445 1.659 C 31.403 1.429,31.251 0.960,31.108 0.616 L 30.847 -0.008 25.757 0.005 C 22.957 0.012,20.657 0.051,20.646 0.092 M58.500 0.259 C 58.500 0.402,58.433 0.478,58.351 0.427 C 57.880 0.137,57.792 55.462,58.262 56.133 L 58.527 56.512 71.972 56.490 C 79.394 56.477,85.790 56.398,86.250 56.313 C 86.708 56.228,87.177 56.148,87.292 56.135 C 87.406 56.122,87.500 56.044,87.500 55.962 C 87.500 55.881,87.569 55.856,87.653 55.908 C 87.738 55.960,87.933 55.877,88.087 55.722 C 88.321 55.489,88.424 55.477,88.701 55.650 C 88.885 55.764,88.988 55.782,88.931 55.689 C 88.831 55.528,88.938 55.502,89.795 55.487 C 90.020 55.483,90.129 55.408,90.064 55.302 C 90.000 55.198,90.051 55.156,90.185 55.201 C 90.312 55.244,90.516 55.160,90.637 55.015 C 90.759 54.869,90.811 54.844,90.753 54.958 C 90.631 55.198,90.931 55.246,91.077 55.011 C 91.130 54.925,91.398 54.742,91.673 54.605 C 91.948 54.468,92.129 54.426,92.076 54.511 C 91.920 54.764,92.275 54.688,92.496 54.422 C 92.607 54.287,92.748 54.183,92.808 54.190 C 93.070 54.221,93.655 53.950,93.582 53.832 C 93.538 53.760,93.618 53.657,93.760 53.603 C 93.929 53.538,93.982 53.575,93.913 53.710 C 93.856 53.824,93.927 53.771,94.071 53.593 C 94.215 53.415,94.336 53.340,94.339 53.426 C 94.342 53.513,94.454 53.438,94.589 53.260 C 94.723 53.082,94.836 53.007,94.839 53.093 C 94.842 53.179,94.954 53.104,95.089 52.926 C 95.223 52.749,95.333 52.659,95.333 52.727 C 95.333 52.795,95.596 52.650,95.917 52.405 C 96.237 52.161,96.500 51.849,96.500 51.712 C 96.500 51.573,96.598 51.502,96.724 51.550 C 96.984 51.650,98.568 50.075,98.733 49.552 C 98.794 49.360,98.999 49.162,99.189 49.113 C 99.378 49.063,99.489 48.950,99.434 48.862 C 99.380 48.774,99.447 48.659,99.584 48.606 C 99.721 48.553,99.833 48.398,99.833 48.261 C 99.833 48.124,99.982 47.932,100.165 47.834 C 100.347 47.737,100.542 47.472,100.599 47.246 C 100.656 47.020,100.769 46.877,100.851 46.928 C 100.933 46.978,101.000 46.940,101.000 46.843 C 101.000 46.540,101.055 46.427,101.366 46.094 C 101.531 45.916,101.667 45.710,101.667 45.635 C 101.667 45.322,101.703 45.236,101.949 44.964 C 102.096 44.802,102.169 44.527,102.117 44.329 C 102.038 44.027,102.062 44.010,102.292 44.199 C 102.524 44.389,102.545 44.369,102.461 44.041 C 102.398 43.797,102.427 43.705,102.544 43.777 C 102.658 43.848,102.684 43.785,102.614 43.602 C 102.548 43.432,102.571 43.357,102.669 43.418 C 102.759 43.474,102.843 43.440,102.854 43.343 C 102.892 43.023,102.927 42.920,103.110 42.583 C 103.209 42.400,103.263 42.081,103.230 41.875 C 103.192 41.642,103.247 41.516,103.376 41.542 C 103.507 41.568,103.565 41.429,103.534 41.167 C 103.494 40.826,103.519 40.795,103.673 41.000 C 103.822 41.199,103.840 41.159,103.763 40.800 C 103.692 40.476,103.746 40.303,103.957 40.179 C 104.212 40.028,104.218 39.985,104.000 39.839 C 103.862 39.747,103.832 39.671,103.932 39.669 C 104.214 39.665,104.558 38.805,104.332 38.666 C 104.206 38.588,104.262 38.358,104.509 37.939 C 104.708 37.602,104.832 37.178,104.784 36.996 C 104.737 36.815,104.766 36.708,104.849 36.760 C 104.986 36.844,105.085 36.080,105.009 35.525 C 104.992 35.401,105.050 35.345,105.139 35.399 C 105.233 35.457,105.294 35.238,105.285 34.875 C 105.260 33.877,105.387 32.833,105.533 32.833 C 105.606 32.833,105.667 32.716,105.667 32.573 C 105.667 32.431,105.596 32.357,105.511 32.410 C 105.416 32.469,105.408 32.319,105.491 32.030 C 105.661 31.438,105.671 24.707,105.503 24.253 C 105.435 24.070,105.463 23.786,105.565 23.622 C 105.690 23.421,105.695 23.284,105.580 23.203 C 105.486 23.137,105.385 22.821,105.355 22.500 C 105.325 22.179,105.236 21.797,105.158 21.651 C 105.074 21.493,105.086 21.314,105.187 21.213 C 105.305 21.095,105.305 20.838,105.187 20.396 C 105.093 20.040,104.962 19.525,104.896 19.250 C 104.831 18.975,104.765 18.712,104.750 18.667 C 104.735 18.621,104.662 18.358,104.588 18.083 C 104.515 17.808,104.371 17.475,104.269 17.343 C 104.127 17.160,104.133 17.132,104.293 17.229 C 104.523 17.367,104.273 16.651,103.926 16.176 C 103.794 15.996,103.802 15.967,103.958 16.061 C 104.247 16.235,104.221 15.919,103.927 15.675 C 103.795 15.565,103.732 15.356,103.788 15.210 C 103.855 15.036,103.824 14.986,103.697 15.065 C 103.570 15.143,103.538 15.094,103.604 14.923 C 103.659 14.780,103.603 14.541,103.479 14.392 C 103.356 14.243,103.254 14.000,103.253 13.852 C 103.251 13.704,103.166 13.599,103.064 13.618 C 102.962 13.636,102.878 13.524,102.879 13.368 C 102.880 12.790,102.828 12.667,102.583 12.667 C 102.446 12.667,102.333 12.587,102.333 12.490 C 102.333 12.393,102.401 12.356,102.484 12.407 C 102.568 12.458,102.597 12.351,102.549 12.169 C 102.501 11.986,102.396 11.878,102.314 11.928 C 102.233 11.979,102.167 11.861,102.167 11.667 C 102.167 11.473,102.100 11.355,102.017 11.406 C 101.838 11.517,101.626 11.034,101.759 10.818 C 101.811 10.735,101.761 10.667,101.649 10.667 C 101.536 10.667,101.492 10.619,101.551 10.560 C 101.671 10.440,101.047 9.487,100.713 9.281 C 100.592 9.207,100.532 9.083,100.579 9.007 C 100.627 8.930,100.448 8.635,100.182 8.350 C 99.917 8.066,99.729 7.833,99.765 7.833 C 99.801 7.833,99.705 7.687,99.552 7.509 C 99.399 7.330,99.210 7.223,99.133 7.271 C 99.055 7.319,99.010 7.296,99.031 7.221 C 99.107 6.958,98.649 6.325,98.466 6.438 C 98.365 6.500,98.326 6.479,98.381 6.391 C 98.435 6.303,98.184 5.944,97.823 5.594 C 97.462 5.244,97.167 5.003,97.167 5.060 C 97.167 5.117,96.942 4.928,96.667 4.640 C 96.392 4.353,96.167 4.177,96.167 4.251 C 96.167 4.324,96.017 4.211,95.833 4.000 C 95.650 3.789,95.498 3.683,95.495 3.766 C 95.492 3.849,95.413 3.784,95.318 3.621 C 95.224 3.459,95.075 3.371,94.987 3.425 C 94.900 3.479,94.879 3.612,94.941 3.720 C 95.004 3.831,94.988 3.857,94.904 3.780 C 94.822 3.705,94.753 3.525,94.752 3.380 C 94.751 3.235,94.602 3.094,94.421 3.067 C 94.240 3.041,93.997 2.888,93.880 2.727 C 93.762 2.567,93.664 2.507,93.662 2.593 C 93.659 2.679,93.580 2.619,93.487 2.458 C 93.393 2.298,93.241 2.167,93.149 2.167 C 93.056 2.167,93.019 2.229,93.066 2.306 C 93.113 2.382,93.053 2.444,92.932 2.444 C 92.812 2.444,92.721 2.334,92.731 2.198 C 92.742 2.063,92.646 1.916,92.518 1.871 C 92.360 1.816,92.329 1.862,92.420 2.020 C 92.494 2.147,92.354 2.068,92.110 1.846 C 91.866 1.624,91.667 1.494,91.667 1.558 C 91.667 1.622,91.492 1.560,91.278 1.420 C 91.065 1.280,90.840 1.216,90.778 1.277 C 90.717 1.339,90.667 1.293,90.667 1.177 C 90.667 1.049,90.558 1.006,90.396 1.068 C 90.246 1.126,90.028 1.092,89.910 0.994 C 89.570 0.712,88.834 0.628,88.828 0.872 C 88.825 0.992,88.749 0.956,88.651 0.788 C 88.557 0.626,88.409 0.536,88.323 0.590 C 88.237 0.643,88.167 0.615,88.167 0.528 C 88.167 0.440,87.830 0.389,87.419 0.413 C 86.954 0.441,86.603 0.374,86.489 0.237 C 86.188 -0.126,58.500 -0.104,58.500 0.259 M115.107 0.345 L 114.669 0.689 114.669 28.267 C 114.669 52.578,114.698 55.856,114.918 55.940 C 115.055 55.993,115.167 56.139,115.167 56.265 C 115.167 56.454,115.920 56.487,119.516 56.455 L 123.865 56.417 124.265 55.917 L 124.665 55.417 124.666 37.375 C 124.666 25.459,124.723 19.333,124.833 19.333 C 124.977 19.333,125.081 19.820,125.020 20.208 C 125.009 20.277,125.079 20.333,125.177 20.333 C 125.274 20.333,125.307 20.407,125.251 20.498 C 125.193 20.593,125.260 20.621,125.408 20.564 C 125.550 20.509,125.667 20.547,125.667 20.649 C 125.667 20.750,125.582 20.833,125.480 20.833 C 125.358 20.833,125.372 20.932,125.521 21.115 C 125.715 21.355,125.715 21.376,125.520 21.259 C 125.360 21.162,125.316 21.191,125.374 21.352 C 125.420 21.479,125.530 21.569,125.618 21.551 C 125.706 21.533,125.791 21.608,125.806 21.718 C 125.822 21.827,125.866 22.142,125.903 22.417 C 125.984 23.001,126.436 24.379,126.769 25.056 C 126.897 25.317,126.959 25.598,126.908 25.681 C 126.856 25.765,126.877 25.833,126.954 25.833 C 127.031 25.833,127.109 26.019,127.128 26.247 C 127.147 26.474,127.310 26.936,127.491 27.273 C 127.672 27.611,127.781 27.950,127.733 28.027 C 127.686 28.104,127.739 28.167,127.851 28.167 C 127.964 28.167,128.006 28.216,127.946 28.276 C 127.886 28.337,127.921 28.488,128.025 28.614 C 128.129 28.739,128.169 28.887,128.113 28.943 C 128.057 28.998,128.098 29.203,128.204 29.397 C 128.310 29.591,128.408 29.892,128.422 30.067 C 128.436 30.241,128.553 30.466,128.682 30.567 C 128.811 30.667,128.917 30.900,128.916 31.083 C 128.916 31.266,129.048 31.548,129.208 31.708 C 129.539 32.039,129.614 32.590,129.302 32.397 C 129.192 32.330,129.271 32.547,129.477 32.880 C 129.683 33.213,129.835 33.582,129.815 33.701 C 129.770 33.968,130.001 34.858,130.174 35.083 C 130.244 35.175,130.328 35.400,130.359 35.583 C 130.391 35.767,130.475 35.960,130.546 36.012 C 130.617 36.065,130.707 36.364,130.747 36.677 C 130.787 36.989,130.889 37.269,130.975 37.297 C 131.061 37.326,131.096 37.485,131.053 37.650 C 131.009 37.815,131.089 38.065,131.229 38.205 C 131.442 38.419,131.583 38.866,131.653 39.552 C 131.660 39.626,131.734 39.645,131.816 39.594 C 131.898 39.543,132.010 39.620,132.066 39.765 C 132.216 40.157,132.188 40.366,132.000 40.250 C 131.908 40.193,131.833 40.229,131.833 40.329 C 131.833 40.429,131.952 40.556,132.097 40.612 C 132.255 40.672,132.328 40.837,132.279 41.023 C 132.232 41.202,132.268 41.291,132.362 41.232 C 132.453 41.176,132.509 41.270,132.487 41.440 C 132.441 41.800,132.652 42.672,132.846 42.922 C 132.920 43.016,133.018 43.304,133.065 43.561 C 133.112 43.818,133.231 44.127,133.331 44.247 C 133.430 44.367,133.497 44.529,133.479 44.607 C 133.424 44.841,133.690 45.723,133.931 46.110 C 134.054 46.308,134.191 46.671,134.236 46.916 C 134.280 47.161,134.406 47.470,134.515 47.602 C 134.625 47.734,134.669 47.887,134.613 47.943 C 134.557 47.998,134.598 48.203,134.704 48.397 C 134.810 48.591,134.908 48.888,134.921 49.057 C 134.935 49.226,135.026 49.413,135.123 49.474 C 135.220 49.534,135.325 49.771,135.358 50.000 C 135.390 50.229,135.511 50.516,135.627 50.638 C 135.742 50.760,135.794 50.929,135.742 51.013 C 135.690 51.098,135.745 51.168,135.865 51.169 C 136.036 51.171,136.034 51.203,135.854 51.317 C 135.727 51.397,135.676 51.547,135.740 51.651 C 135.804 51.754,135.914 51.803,135.984 51.760 C 136.054 51.717,136.124 51.772,136.140 51.882 C 136.155 51.993,136.198 52.329,136.234 52.629 C 136.271 52.930,136.428 53.370,136.584 53.608 C 136.773 53.897,136.793 53.996,136.642 53.905 C 136.475 53.804,136.480 53.847,136.661 54.071 C 136.796 54.236,136.915 54.548,136.927 54.762 C 136.938 54.977,137.041 55.265,137.155 55.403 C 137.269 55.540,137.317 55.724,137.263 55.813 C 136.900 56.400,137.600 56.500,142.082 56.500 L 146.474 56.500 146.687 55.875 C 146.803 55.531,146.903 55.175,146.909 55.083 C 146.914 54.992,147.019 54.739,147.142 54.522 C 147.270 54.296,147.288 54.175,147.183 54.240 C 146.913 54.407,146.961 54.182,147.260 53.883 C 147.402 53.741,147.478 53.517,147.428 53.387 C 147.378 53.256,147.403 53.190,147.484 53.240 C 147.655 53.346,147.905 52.562,147.846 52.107 C 147.823 51.930,147.880 51.842,147.978 51.903 C 148.079 51.966,148.124 51.876,148.087 51.684 C 148.052 51.506,148.131 51.319,148.262 51.268 C 148.393 51.218,148.500 51.095,148.500 50.995 C 148.500 50.895,148.406 50.867,148.292 50.931 C 148.131 51.022,148.128 51.000,148.279 50.837 C 148.386 50.721,148.430 50.510,148.375 50.369 C 148.311 50.200,148.344 50.153,148.472 50.232 C 148.682 50.362,148.697 50.327,148.736 49.615 C 148.750 49.358,148.865 49.084,148.991 49.006 C 149.117 48.928,149.231 48.726,149.245 48.557 C 149.259 48.388,149.362 48.081,149.474 47.875 C 149.587 47.669,149.636 47.500,149.585 47.500 C 149.534 47.500,149.596 47.294,149.724 47.042 C 149.852 46.790,149.935 46.452,149.909 46.292 C 149.884 46.131,149.936 46.000,150.025 46.000 C 150.114 46.000,150.140 45.925,150.083 45.833 C 150.027 45.742,150.048 45.667,150.130 45.667 C 150.264 45.667,150.716 44.514,150.752 44.083 C 150.759 43.992,150.858 43.748,150.972 43.542 C 151.085 43.335,151.136 43.167,151.083 43.167 C 151.031 43.167,151.072 43.010,151.174 42.819 C 151.277 42.627,151.395 42.283,151.436 42.054 C 151.478 41.824,151.613 41.475,151.736 41.277 C 151.977 40.890,152.242 40.007,152.188 39.774 C 152.170 39.696,152.242 39.527,152.348 39.399 C 152.454 39.271,152.475 39.166,152.395 39.164 C 152.315 39.163,152.362 39.089,152.500 39.000 C 152.667 38.892,152.681 38.838,152.542 38.836 C 152.427 38.834,152.333 38.754,152.333 38.657 C 152.333 38.560,152.391 38.516,152.461 38.559 C 152.531 38.603,152.674 38.457,152.779 38.236 C 152.883 38.014,152.905 37.872,152.827 37.920 C 152.749 37.969,152.874 37.670,153.105 37.258 C 153.336 36.845,153.480 36.436,153.426 36.349 C 153.372 36.261,153.405 36.142,153.500 36.083 C 153.595 36.025,153.629 35.907,153.576 35.822 C 153.523 35.736,153.553 35.667,153.642 35.667 C 153.731 35.667,153.782 35.535,153.756 35.375 C 153.730 35.215,153.830 34.939,153.979 34.763 C 154.128 34.587,154.161 34.495,154.051 34.559 C 153.942 34.622,154.046 34.328,154.283 33.904 C 154.604 33.329,154.662 33.100,154.510 33.006 C 154.359 32.913,154.378 32.852,154.580 32.774 C 154.731 32.716,154.808 32.593,154.751 32.501 C 154.694 32.409,154.739 32.333,154.851 32.333 C 154.964 32.333,155.009 32.286,154.951 32.229 C 154.894 32.171,154.946 31.928,155.068 31.687 C 155.190 31.447,155.269 31.122,155.244 30.966 C 155.219 30.809,155.296 30.600,155.415 30.501 C 155.535 30.402,155.596 30.155,155.552 29.952 C 155.484 29.645,155.504 29.625,155.667 29.833 C 155.830 30.042,155.849 30.022,155.782 29.716 C 155.738 29.514,155.778 29.324,155.870 29.293 C 155.962 29.263,156.061 29.030,156.089 28.777 C 156.116 28.524,156.206 28.227,156.287 28.117 C 156.369 28.007,156.428 27.710,156.418 27.458 C 156.409 27.206,156.463 27.000,156.538 27.000 C 156.702 27.000,157.029 26.219,157.061 25.750 C 157.074 25.567,157.217 25.173,157.380 24.875 C 157.596 24.478,157.618 24.333,157.463 24.331 C 157.317 24.329,157.307 24.290,157.433 24.206 C 157.739 24.002,158.041 23.333,157.827 23.333 C 157.726 23.333,157.767 23.209,157.919 23.057 C 158.308 22.668,158.568 21.939,158.344 21.865 C 158.246 21.832,158.167 21.732,158.167 21.643 C 158.167 21.554,158.238 21.524,158.325 21.578 C 158.533 21.707,158.796 21.181,158.756 20.718 C 158.738 20.517,158.805 20.367,158.904 20.385 C 159.003 20.402,159.079 20.178,159.075 19.886 C 159.070 19.593,159.126 19.392,159.200 19.437 C 159.273 19.482,159.333 27.618,159.333 37.515 L 159.333 55.511 159.839 56.006 L 160.345 56.500 164.417 56.500 L 168.489 56.500 169.023 55.977 C 169.532 55.479,169.543 55.444,169.247 55.227 C 169.076 55.102,169.026 55.000,169.135 55.000 C 169.288 55.000,169.333 48.813,169.333 28.157 C 169.333 6.737,169.291 1.335,169.125 1.419 C 169.010 1.477,169.057 1.410,169.229 1.270 C 169.530 1.025,169.523 0.997,169.030 0.504 L 168.518 -0.008 162.671 0.004 C 159.421 0.011,156.863 0.080,156.913 0.161 C 156.962 0.240,156.908 0.343,156.793 0.390 C 156.634 0.454,156.644 0.518,156.833 0.651 C 156.985 0.759,157.006 0.829,156.886 0.831 C 156.722 0.833,156.388 1.485,156.479 1.627 C 156.494 1.651,156.387 1.901,156.241 2.183 C 156.095 2.466,156.018 2.806,156.069 2.940 C 156.121 3.074,156.103 3.147,156.031 3.102 C 155.958 3.057,155.815 3.242,155.713 3.511 C 155.573 3.883,155.575 3.973,155.722 3.883 C 155.829 3.817,155.780 3.972,155.613 4.227 C 155.327 4.664,155.158 5.148,155.126 5.625 C 155.118 5.740,155.044 5.833,154.962 5.833 C 154.881 5.833,154.853 5.896,154.900 5.973 C 154.948 6.050,154.851 6.369,154.686 6.682 C 154.365 7.287,154.090 8.157,154.145 8.393 C 154.163 8.471,154.101 8.628,154.007 8.741 C 153.913 8.855,153.886 8.997,153.946 9.057 C 154.006 9.117,153.964 9.167,153.851 9.167 C 153.739 9.167,153.685 9.228,153.732 9.304 C 153.778 9.379,153.719 9.628,153.601 9.856 C 153.342 10.354,153.098 11.190,153.148 11.402 C 153.212 11.667,152.801 12.500,152.605 12.503 C 152.501 12.504,152.529 12.578,152.667 12.667 C 152.804 12.756,152.832 12.829,152.728 12.831 C 152.573 12.833,152.411 13.159,152.351 13.589 C 152.345 13.634,152.236 13.876,152.110 14.127 C 151.983 14.378,151.916 14.688,151.961 14.815 C 152.012 14.960,151.971 15.001,151.849 14.927 C 151.715 14.844,151.679 14.936,151.731 15.224 C 151.780 15.493,151.719 15.675,151.559 15.736 C 151.423 15.788,151.358 15.905,151.414 15.995 C 151.470 16.086,151.423 16.330,151.311 16.538 C 151.199 16.746,151.096 17.129,151.083 17.388 C 151.071 17.648,150.959 17.922,150.837 17.998 C 150.714 18.074,150.603 18.275,150.590 18.446 C 150.578 18.616,150.511 18.848,150.441 18.961 C 150.310 19.172,150.151 19.761,150.126 20.125 C 150.118 20.240,150.049 20.333,149.972 20.333 C 149.791 20.333,149.869 20.715,150.083 20.872 C 150.177 20.941,150.117 20.996,149.948 20.997 C 149.783 20.999,149.693 21.075,149.750 21.167 C 149.807 21.258,149.774 21.333,149.677 21.333 C 149.579 21.333,149.514 21.390,149.531 21.458 C 149.548 21.527,149.437 21.870,149.285 22.220 C 149.132 22.570,149.022 22.907,149.039 22.970 C 149.057 23.032,148.990 23.233,148.891 23.417 C 148.792 23.600,148.722 23.951,148.736 24.196 C 148.749 24.441,148.686 24.629,148.596 24.613 C 148.506 24.597,148.427 24.733,148.422 24.917 C 148.416 25.100,148.340 25.363,148.252 25.500 C 148.164 25.637,148.112 25.900,148.137 26.083 C 148.175 26.365,148.152 26.378,147.993 26.167 C 147.838 25.961,147.819 25.984,147.887 26.292 C 147.932 26.498,147.896 26.667,147.808 26.667 C 147.719 26.667,147.689 26.735,147.741 26.819 C 147.793 26.903,147.741 27.010,147.626 27.056 C 147.468 27.121,147.478 27.184,147.667 27.318 C 147.804 27.415,147.835 27.496,147.735 27.497 C 147.635 27.499,147.466 27.692,147.359 27.927 C 147.246 28.174,147.235 28.311,147.332 28.251 C 147.424 28.194,147.500 28.226,147.500 28.323 C 147.500 28.421,147.434 28.500,147.354 28.500 C 147.126 28.500,146.786 29.454,146.927 29.698 C 146.997 29.818,146.993 29.862,146.918 29.794 C 146.844 29.727,146.682 29.867,146.558 30.105 C 146.290 30.622,146.278 30.721,146.500 30.583 C 146.592 30.526,146.501 30.761,146.299 31.105 C 146.096 31.448,146.021 31.674,146.132 31.605 C 146.243 31.536,146.333 31.560,146.333 31.657 C 146.333 31.754,146.267 31.833,146.187 31.833 C 145.963 31.833,145.618 32.787,145.760 33.016 C 145.835 33.137,145.815 33.175,145.710 33.110 C 145.545 33.008,145.238 33.744,145.313 34.063 C 145.332 34.143,145.242 34.330,145.112 34.479 C 144.983 34.628,144.868 34.881,144.855 35.042 C 144.804 35.714,144.770 35.833,144.629 35.833 C 144.547 35.833,144.519 35.896,144.567 35.973 C 144.614 36.050,144.502 36.396,144.316 36.742 C 144.131 37.088,144.017 37.470,144.063 37.592 C 144.110 37.713,144.072 37.837,143.980 37.868 C 143.888 37.898,143.790 38.127,143.763 38.375 C 143.736 38.623,143.619 38.940,143.503 39.080 C 143.387 39.219,143.340 39.333,143.398 39.333 C 143.457 39.333,143.390 39.608,143.250 39.944 C 143.109 40.279,143.037 40.686,143.088 40.848 C 143.144 41.026,143.070 41.204,142.898 41.301 C 142.742 41.388,142.601 41.633,142.586 41.845 C 142.570 42.057,142.467 42.261,142.357 42.298 C 142.246 42.335,142.167 42.301,142.181 42.224 C 142.241 41.887,142.154 41.655,142.002 41.749 C 141.904 41.810,141.862 41.647,141.897 41.342 C 141.930 41.062,141.887 40.833,141.802 40.833 C 141.717 40.833,141.690 40.764,141.743 40.678 C 141.796 40.593,141.761 40.475,141.667 40.417 C 141.572 40.358,141.534 40.247,141.581 40.170 C 141.729 39.931,141.478 39.500,141.191 39.497 C 140.997 39.496,140.976 39.457,141.120 39.366 C 141.349 39.220,141.184 38.332,140.932 38.351 C 140.641 38.374,140.445 37.804,140.689 37.644 C 140.874 37.522,140.858 37.449,140.604 37.255 C 140.417 37.112,140.333 36.908,140.394 36.748 C 140.451 36.601,140.346 36.185,140.162 35.824 C 139.977 35.462,139.884 35.166,139.955 35.164 C 140.026 35.163,139.978 35.095,139.850 35.014 C 139.722 34.933,139.598 34.653,139.575 34.391 C 139.552 34.130,139.526 33.856,139.517 33.782 C 139.507 33.708,139.435 33.687,139.356 33.736 C 139.276 33.785,139.236 33.609,139.267 33.346 C 139.299 33.074,139.221 32.781,139.088 32.671 C 138.959 32.563,138.899 32.356,138.955 32.210 C 139.028 32.020,138.994 31.984,138.835 32.082 C 138.670 32.184,138.637 32.130,138.707 31.866 C 138.757 31.671,138.701 31.431,138.582 31.332 C 138.463 31.233,138.385 31.024,138.411 30.868 C 138.436 30.711,138.352 30.377,138.224 30.125 C 138.096 29.873,138.034 29.667,138.085 29.667 C 138.136 29.667,138.082 29.498,137.965 29.292 C 137.848 29.085,137.741 28.842,137.728 28.750 C 137.716 28.658,137.687 28.527,137.665 28.458 C 137.618 28.313,137.601 28.250,137.422 27.583 C 137.348 27.308,137.206 26.981,137.107 26.856 C 137.008 26.731,136.918 26.452,136.906 26.238 C 136.895 26.023,136.796 25.739,136.687 25.608 C 136.578 25.476,136.500 25.304,136.514 25.226 C 136.574 24.892,136.489 24.654,136.342 24.745 C 136.255 24.798,136.214 24.686,136.251 24.494 C 136.323 24.121,135.861 23.000,135.636 23.000 C 135.561 23.000,135.500 22.921,135.500 22.823 C 135.500 22.726,135.575 22.693,135.667 22.750 C 135.908 22.899,135.872 22.713,135.569 22.251 C 135.424 22.030,135.353 21.770,135.412 21.674 C 135.471 21.578,135.436 21.500,135.333 21.500 C 135.231 21.500,135.194 21.424,135.251 21.332 C 135.308 21.240,135.231 21.117,135.080 21.059 C 134.894 20.988,134.867 20.916,134.995 20.837 C 135.193 20.714,134.917 19.864,134.607 19.644 C 134.525 19.585,134.509 19.454,134.572 19.352 C 134.635 19.250,134.619 19.167,134.538 19.167 C 134.456 19.167,134.382 19.073,134.374 18.958 C 134.347 18.554,134.178 17.964,134.036 17.775 C 133.957 17.669,133.885 17.433,133.876 17.250 C 133.866 17.067,133.704 16.556,133.514 16.114 C 133.324 15.673,133.135 15.123,133.093 14.891 C 133.051 14.660,132.927 14.363,132.818 14.232 C 132.709 14.100,132.665 13.946,132.720 13.891 C 132.776 13.835,132.735 13.631,132.629 13.436 C 132.524 13.242,132.426 12.945,132.412 12.776 C 132.398 12.608,132.307 12.420,132.210 12.360 C 132.112 12.299,131.996 12.017,131.951 11.731 C 131.906 11.446,131.780 11.046,131.671 10.842 C 131.562 10.638,131.514 10.431,131.564 10.380 C 131.614 10.330,131.567 10.131,131.460 9.936 C 131.353 9.742,131.261 9.508,131.255 9.417 C 131.231 9.005,130.765 7.904,130.567 7.787 C 130.446 7.716,130.390 7.547,130.441 7.412 C 130.493 7.277,130.453 7.167,130.351 7.167 C 130.250 7.167,130.167 7.087,130.167 6.990 C 130.167 6.893,130.242 6.860,130.335 6.917 C 130.432 6.977,130.420 6.841,130.308 6.594 C 130.201 6.359,130.031 6.166,129.932 6.164 C 129.832 6.163,129.862 6.082,130.000 5.985 C 130.189 5.851,130.199 5.787,130.041 5.723 C 129.925 5.676,129.874 5.570,129.925 5.486 C 129.977 5.402,129.947 5.333,129.859 5.333 C 129.770 5.333,129.734 5.195,129.779 5.025 C 129.823 4.855,129.748 4.605,129.611 4.468 C 129.475 4.332,129.338 4.040,129.307 3.819 C 129.276 3.598,129.180 3.366,129.094 3.304 C 129.009 3.243,128.931 2.943,128.923 2.638 C 128.913 2.318,128.826 2.099,128.716 2.121 C 128.594 2.145,128.549 1.965,128.592 1.621 C 128.643 1.207,128.618 1.141,128.481 1.333 C 128.339 1.535,128.320 1.513,128.383 1.221 C 128.439 0.965,128.396 0.884,128.237 0.945 C 128.070 1.009,128.029 0.897,128.077 0.516 L 128.142 0.000 121.844 0.000 C 115.728 0.000,115.532 0.010,115.107 0.345 M181.786 0.302 C 181.841 0.457,181.829 0.532,181.759 0.468 C 181.185 -0.049,181.182 0.084,181.176 28.268 C 181.171 54.838,181.181 55.799,181.480 56.143 C 181.781 56.491,181.900 56.500,186.216 56.500 L 190.642 56.500 190.987 56.062 L 191.331 55.624 191.331 28.229 C 191.331 9.157,191.278 0.833,191.156 0.833 C 191.059 0.833,191.023 0.764,191.076 0.679 C 191.128 0.594,191.019 0.476,190.833 0.417 C 190.647 0.358,190.539 0.238,190.594 0.150 C 190.655 0.050,189.015 -0.004,186.188 0.005 C 182.035 0.019,181.693 0.042,181.786 0.302 M203.066 0.466 C 202.873 0.714,202.735 1.048,202.760 1.209 C 202.784 1.370,202.736 1.459,202.652 1.408 C 202.561 1.351,202.500 12.063,202.500 28.250 C 202.500 45.175,202.559 55.150,202.658 55.089 C 202.745 55.035,202.787 55.142,202.751 55.326 C 202.714 55.519,202.806 55.731,202.968 55.826 C 203.123 55.916,203.188 55.992,203.113 55.995 C 203.038 55.998,203.089 56.113,203.226 56.250 C 203.435 56.459,204.171 56.500,207.726 56.500 L 211.976 56.500 212.321 56.061 C 212.666 55.623,212.667 55.588,212.667 36.922 C 212.667 20.662,212.698 18.222,212.909 18.222 C 213.043 18.222,213.117 18.280,213.073 18.350 C 213.000 18.468,213.709 19.637,213.972 19.830 C 214.037 19.878,214.181 20.123,214.291 20.375 C 214.402 20.627,214.569 20.833,214.663 20.833 C 214.757 20.833,214.833 20.946,214.833 21.083 C 214.833 21.221,214.892 21.333,214.963 21.333 C 215.035 21.333,215.181 21.565,215.288 21.849 C 215.414 22.183,215.553 22.320,215.684 22.239 C 215.811 22.161,215.841 22.185,215.766 22.308 C 215.693 22.426,215.763 22.501,215.948 22.503 C 216.136 22.504,216.179 22.551,216.063 22.628 C 215.938 22.709,216.109 23.095,216.578 23.791 C 216.964 24.363,217.341 24.776,217.416 24.708 C 217.492 24.639,217.501 24.675,217.436 24.787 C 217.370 24.902,217.468 25.119,217.660 25.283 C 217.847 25.443,218.000 25.670,218.000 25.787 C 218.000 25.904,218.075 26.000,218.167 26.000 C 218.258 26.000,218.316 26.056,218.295 26.125 C 218.246 26.282,219.822 28.730,220.021 28.806 C 220.101 28.836,220.167 28.967,220.167 29.097 C 220.167 29.227,220.242 29.333,220.333 29.333 C 220.425 29.333,220.500 29.446,220.500 29.583 C 220.500 29.721,220.575 29.833,220.667 29.833 C 220.758 29.833,220.815 29.894,220.792 29.967 C 220.731 30.162,222.489 32.667,222.686 32.667 C 222.778 32.667,222.808 32.739,222.754 32.827 C 222.699 32.916,222.788 33.124,222.952 33.291 C 223.116 33.457,223.355 33.795,223.483 34.041 C 223.612 34.287,223.781 34.449,223.858 34.401 C 223.936 34.353,224.000 34.468,224.000 34.657 C 224.000 34.846,224.075 35.000,224.167 35.000 C 224.258 35.000,224.315 35.094,224.292 35.208 C 224.269 35.323,224.349 35.396,224.471 35.371 C 224.592 35.346,224.644 35.402,224.585 35.497 C 224.472 35.679,225.039 36.604,225.484 36.966 C 225.630 37.084,225.754 37.234,225.758 37.299 C 225.784 37.673,226.047 38.158,226.179 38.076 C 226.264 38.023,226.333 38.097,226.333 38.240 C 226.333 38.383,226.408 38.500,226.500 38.500 C 226.592 38.500,226.667 38.590,226.667 38.701 C 226.667 38.962,228.358 41.500,228.533 41.500 C 228.606 41.500,228.667 41.612,228.667 41.750 C 228.667 41.887,228.742 42.000,228.833 42.000 C 228.925 42.000,229.000 42.112,229.000 42.250 C 229.000 42.387,229.075 42.500,229.167 42.500 C 229.258 42.500,229.333 42.612,229.333 42.750 C 229.333 42.887,229.408 43.000,229.500 43.000 C 229.592 43.000,229.648 43.056,229.626 43.125 C 229.570 43.299,230.691 45.000,230.861 45.000 C 230.938 45.000,231.000 45.098,231.000 45.219 C 231.000 45.339,231.150 45.598,231.333 45.795 C 231.517 45.992,231.667 46.231,231.667 46.326 C 231.667 46.422,231.742 46.500,231.833 46.500 C 231.925 46.500,232.000 46.612,232.000 46.750 C 232.000 46.887,232.079 47.000,232.177 47.000 C 232.274 47.000,232.309 47.071,232.255 47.158 C 232.201 47.245,232.309 47.398,232.495 47.498 C 232.681 47.597,232.833 47.762,232.833 47.863 C 232.833 48.177,233.738 49.499,233.953 49.500 C 234.065 49.500,234.118 49.599,234.072 49.719 C 234.026 49.840,234.159 50.130,234.369 50.363 C 234.579 50.597,234.774 50.892,234.804 51.019 C 234.834 51.146,234.992 51.400,235.155 51.583 C 235.318 51.767,235.591 52.160,235.762 52.458 C 235.932 52.756,236.173 53.000,236.296 53.000 C 236.419 53.000,236.475 53.073,236.420 53.162 C 236.278 53.391,236.833 54.186,237.044 54.056 C 237.143 53.995,237.169 54.029,237.103 54.135 C 236.978 54.336,237.743 55.667,237.984 55.667 C 238.065 55.667,238.178 55.854,238.235 56.083 L 238.340 56.500 243.061 56.500 C 247.570 56.500,247.795 56.485,248.083 56.167 C 248.249 55.983,248.321 55.833,248.242 55.833 C 248.164 55.833,248.190 55.743,248.300 55.633 C 248.584 55.349,248.591 1.315,248.307 0.784 C 247.885 -0.005,247.913 -0.000,243.454 0.000 C 239.189 0.000,238.207 0.152,238.777 0.722 C 238.839 0.783,238.803 0.833,238.699 0.833 C 238.557 0.833,238.507 5.657,238.502 19.619 C 238.498 32.474,238.441 38.459,238.321 38.577 C 238.200 38.697,238.177 38.672,238.244 38.495 C 238.297 38.355,238.221 38.093,238.075 37.912 C 237.928 37.731,237.863 37.689,237.930 37.817 C 238.010 37.971,237.986 38.011,237.859 37.933 C 237.753 37.867,237.667 37.668,237.667 37.490 C 237.667 37.312,237.517 37.017,237.333 36.833 C 237.150 36.650,237.000 36.421,237.000 36.325 C 237.000 36.229,236.794 35.955,236.542 35.715 C 236.290 35.475,236.196 35.334,236.333 35.402 C 236.483 35.476,236.467 35.429,236.292 35.286 C 236.131 35.154,236.000 34.961,236.000 34.857 C 236.000 34.752,235.925 34.667,235.833 34.667 C 235.742 34.667,235.667 34.554,235.667 34.417 C 235.667 34.279,235.592 34.167,235.500 34.167 C 235.408 34.167,235.333 34.050,235.333 33.907 C 235.333 33.753,235.255 33.695,235.141 33.766 C 235.014 33.845,234.994 33.811,235.083 33.667 C 235.168 33.530,235.104 33.366,234.910 33.225 C 234.741 33.101,234.660 33.000,234.730 33.000 C 234.800 33.000,234.758 32.890,234.637 32.756 C 234.139 32.204,234.000 32.006,234.000 31.850 C 234.000 31.760,233.913 31.633,233.808 31.567 C 233.680 31.489,233.661 31.522,233.750 31.667 C 233.837 31.808,233.820 31.845,233.700 31.770 C 233.598 31.707,233.551 31.560,233.597 31.442 C 233.642 31.325,233.492 31.027,233.264 30.781 C 233.036 30.535,232.886 30.333,232.930 30.333 C 232.975 30.333,232.931 30.183,232.833 30.000 C 232.735 29.817,232.545 29.667,232.411 29.667 C 232.277 29.667,232.167 29.545,232.167 29.397 C 232.167 29.018,231.294 27.680,231.042 27.673 C 230.927 27.669,230.833 27.587,230.833 27.490 C 230.833 27.393,230.927 27.370,231.042 27.439 C 231.176 27.520,231.167 27.462,231.015 27.274 C 230.886 27.115,230.669 27.027,230.533 27.080 C 230.334 27.156,230.325 27.127,230.488 26.932 C 230.649 26.737,230.621 26.621,230.344 26.344 C 230.155 26.155,230.000 25.925,230.000 25.833 C 230.000 25.742,229.921 25.667,229.823 25.667 C 229.726 25.667,229.685 25.606,229.731 25.531 C 229.803 25.414,229.617 25.140,228.837 24.215 C 228.743 24.105,228.667 23.947,228.667 23.865 C 228.667 23.783,228.483 23.517,228.258 23.274 C 228.033 23.032,227.902 22.831,227.966 22.828 C 228.031 22.825,227.938 22.713,227.760 22.578 C 227.582 22.443,227.493 22.333,227.563 22.333 C 227.632 22.333,227.529 22.107,227.332 21.831 C 227.135 21.555,226.906 21.372,226.822 21.423 C 226.739 21.475,226.709 21.418,226.756 21.296 C 226.802 21.174,226.721 20.926,226.575 20.745 C 226.428 20.565,226.364 20.529,226.431 20.667 C 226.503 20.814,226.491 20.859,226.402 20.778 C 226.318 20.701,226.241 20.570,226.229 20.486 C 226.218 20.402,226.199 20.254,226.188 20.157 C 226.176 20.060,226.100 20.021,226.019 20.072 C 225.938 20.122,225.881 20.033,225.894 19.873 C 225.906 19.713,225.818 19.604,225.696 19.629 C 225.575 19.654,225.521 19.601,225.577 19.510 C 225.691 19.326,224.872 18.000,224.645 18.000 C 224.565 18.000,224.500 17.902,224.500 17.781 C 224.500 17.661,224.350 17.402,224.167 17.205 C 223.983 17.008,223.833 16.765,223.833 16.664 C 223.833 16.563,223.747 16.534,223.641 16.599 C 223.524 16.672,223.494 16.645,223.564 16.532 C 223.690 16.328,222.884 15.000,222.635 15.000 C 222.550 15.000,222.522 14.933,222.573 14.851 C 222.623 14.769,222.548 14.657,222.405 14.602 C 222.262 14.547,222.189 14.431,222.243 14.345 C 222.297 14.258,222.239 14.126,222.116 14.052 C 221.993 13.978,221.841 13.781,221.780 13.614 C 221.719 13.448,221.594 13.358,221.503 13.415 C 221.409 13.473,221.378 13.411,221.431 13.272 C 221.483 13.136,221.389 12.888,221.221 12.719 C 221.054 12.550,220.825 12.207,220.712 11.956 C 220.599 11.705,220.431 11.500,220.337 11.500 C 220.243 11.500,220.167 11.384,220.167 11.242 C 220.167 11.100,219.960 10.788,219.708 10.548 C 219.456 10.308,219.341 10.165,219.453 10.229 C 219.564 10.293,219.457 10.043,219.215 9.673 C 218.972 9.303,218.712 9.000,218.637 9.000 C 218.562 9.000,218.500 8.887,218.500 8.750 C 218.500 8.612,218.421 8.500,218.323 8.500 C 218.226 8.500,218.190 8.430,218.244 8.344 C 218.297 8.258,218.208 8.110,218.045 8.015 C 217.883 7.921,217.812 7.841,217.887 7.838 C 217.962 7.836,217.925 7.723,217.804 7.589 C 217.422 7.166,217.257 6.930,217.015 6.461 C 216.886 6.211,216.651 5.867,216.494 5.698 C 216.336 5.529,216.156 5.228,216.092 5.029 C 216.029 4.829,215.833 4.589,215.655 4.494 C 215.478 4.399,215.333 4.213,215.333 4.080 C 215.333 3.751,214.463 2.514,214.226 2.506 C 214.121 2.503,213.988 2.377,213.931 2.226 C 213.853 2.025,213.884 1.992,214.046 2.101 C 214.167 2.183,214.150 2.135,214.008 1.994 C 213.866 1.853,213.727 1.628,213.699 1.494 C 213.671 1.360,213.540 1.167,213.408 1.065 C 213.275 0.963,213.167 0.794,213.167 0.690 C 213.167 0.585,213.092 0.500,213.000 0.500 C 212.908 0.500,212.852 0.406,212.875 0.292 C 212.907 0.130,211.863 0.076,208.167 0.049 L 203.417 0.015 203.066 0.466 M283.119 0.302 C 283.174 0.457,283.162 0.532,283.092 0.468 C 282.518 -0.049,282.515 0.084,282.510 28.268 C 282.504 54.914,282.514 55.798,282.816 56.146 C 283.203 56.592,292.130 56.641,292.038 56.196 C 292.012 56.075,292.065 56.020,292.154 56.076 C 292.597 56.349,292.656 55.247,292.664 46.485 L 292.672 37.427 293.162 36.922 C 293.431 36.644,293.655 36.342,293.659 36.250 C 293.663 36.158,293.737 36.083,293.823 36.083 C 293.993 36.083,294.881 35.147,295.292 34.533 C 295.434 34.322,295.650 34.188,295.773 34.236 C 295.895 34.283,295.978 34.230,295.956 34.119 C 295.935 34.008,296.016 33.937,296.137 33.962 C 296.259 33.988,296.319 33.945,296.271 33.867 C 296.223 33.790,296.330 33.601,296.509 33.448 C 296.687 33.295,296.833 33.218,296.833 33.277 C 296.833 33.337,296.982 33.251,297.163 33.087 C 297.344 32.923,297.445 32.712,297.387 32.619 C 297.329 32.525,297.356 32.494,297.446 32.550 C 297.657 32.680,299.535 30.762,299.372 30.582 C 299.305 30.507,299.344 30.501,299.458 30.566 C 299.591 30.643,299.670 30.577,299.677 30.385 C 299.686 30.142,299.717 30.156,299.839 30.458 C 299.921 30.665,300.067 30.833,300.161 30.833 C 300.256 30.833,300.315 30.890,300.293 30.958 C 300.249 31.094,300.739 31.838,301.208 32.349 C 301.369 32.524,301.457 32.667,301.405 32.667 C 301.352 32.667,301.422 32.779,301.560 32.917 C 301.697 33.054,301.909 33.168,302.030 33.169 C 302.212 33.171,302.212 33.196,302.030 33.311 C 301.862 33.418,301.931 33.572,302.322 33.963 C 302.603 34.244,302.833 34.555,302.833 34.654 C 302.833 34.753,302.908 34.833,303.000 34.833 C 303.092 34.833,303.167 34.946,303.167 35.083 C 303.167 35.221,303.279 35.333,303.417 35.333 C 303.556 35.333,303.667 35.481,303.667 35.667 C 303.667 35.850,303.742 36.000,303.833 36.000 C 303.925 36.000,304.000 36.112,304.000 36.250 C 304.000 36.387,304.117 36.500,304.260 36.500 C 304.403 36.500,304.475 36.573,304.420 36.662 C 304.281 36.887,304.818 37.667,305.112 37.667 C 305.245 37.667,305.308 37.740,305.253 37.829 C 305.127 38.032,305.655 38.860,305.838 38.747 C 305.912 38.701,306.056 38.915,306.157 39.221 C 306.258 39.528,306.508 39.959,306.712 40.178 C 306.916 40.397,307.067 40.627,307.048 40.687 C 307.028 40.748,307.197 40.997,307.423 41.241 C 307.649 41.484,307.833 41.749,307.833 41.829 C 307.833 41.909,308.077 42.220,308.375 42.520 C 308.673 42.820,308.804 43.000,308.667 42.921 C 308.435 42.786,308.800 43.311,309.246 43.752 C 309.340 43.845,309.546 44.145,309.704 44.419 C 309.862 44.693,310.074 44.896,310.175 44.871 C 310.276 44.846,310.311 44.902,310.253 44.996 C 310.136 45.184,310.560 45.885,310.703 45.741 C 310.753 45.692,310.842 45.845,310.902 46.082 C 310.967 46.344,311.084 46.468,311.197 46.398 C 311.300 46.334,311.339 46.356,311.283 46.446 C 311.147 46.666,311.974 47.869,312.176 47.744 C 312.262 47.691,312.333 47.801,312.333 47.990 C 312.333 48.179,312.408 48.333,312.500 48.333 C 312.592 48.333,312.648 48.427,312.625 48.542 C 312.602 48.656,312.674 48.732,312.786 48.710 C 312.897 48.689,312.948 48.774,312.899 48.901 C 312.851 49.028,312.948 49.234,313.116 49.358 C 313.284 49.482,313.513 49.790,313.624 50.042 C 313.735 50.294,313.940 50.500,314.080 50.500 C 314.239 50.500,314.333 50.655,314.333 50.915 C 314.333 51.150,314.478 51.421,314.667 51.539 C 314.850 51.653,315.000 51.833,315.000 51.939 C 315.000 52.045,315.112 52.174,315.250 52.227 C 315.387 52.280,315.500 52.438,315.500 52.578 C 315.500 52.718,315.575 52.833,315.667 52.833 C 315.758 52.833,315.833 52.914,315.833 53.012 C 315.833 53.358,316.855 54.673,317.036 54.561 C 317.144 54.495,317.171 54.525,317.102 54.636 C 316.960 54.867,317.479 55.700,317.685 55.572 C 317.767 55.522,317.833 55.560,317.833 55.657 C 317.833 56.506,317.793 56.500,323.864 56.500 C 327.592 56.500,329.485 56.443,329.417 56.333 C 329.360 56.242,329.379 56.167,329.459 56.167 C 329.873 56.167,330.309 54.608,329.958 54.383 C 329.844 54.310,329.621 54.025,329.463 53.750 C 329.304 53.475,329.098 53.269,329.004 53.292 C 328.910 53.315,328.833 53.181,328.833 52.995 C 328.833 52.809,328.721 52.613,328.584 52.561 C 328.447 52.508,328.375 52.400,328.424 52.321 C 328.473 52.242,328.360 52.082,328.173 51.965 C 327.986 51.849,327.833 51.664,327.833 51.554 C 327.833 51.445,327.679 51.307,327.491 51.247 C 327.302 51.187,327.179 51.051,327.217 50.944 C 327.312 50.671,326.321 49.322,326.116 49.448 C 326.021 49.507,326.000 49.468,326.067 49.359 C 326.133 49.254,326.069 49.000,325.926 48.797 C 325.784 48.593,325.667 48.498,325.667 48.585 C 325.667 48.673,325.509 48.446,325.316 48.081 C 325.124 47.716,324.888 47.342,324.792 47.250 C 324.673 47.136,324.660 47.157,324.751 47.317 C 324.844 47.479,324.822 47.513,324.681 47.426 C 324.569 47.357,324.518 47.260,324.567 47.211 C 324.717 47.061,323.652 45.702,323.315 45.614 C 323.127 45.564,323.035 45.436,323.089 45.296 C 323.138 45.167,322.988 44.856,322.756 44.606 C 322.524 44.355,322.333 44.081,322.333 43.997 C 322.333 43.914,322.181 43.764,321.995 43.664 C 321.809 43.565,321.702 43.412,321.756 43.324 C 321.810 43.236,321.737 43.119,321.594 43.064 C 321.451 43.009,321.333 42.894,321.333 42.809 C 321.333 42.542,320.621 41.675,320.475 41.765 C 320.399 41.812,320.380 41.739,320.433 41.602 C 320.489 41.456,320.385 41.264,320.181 41.137 C 319.990 41.017,319.833 40.821,319.833 40.700 C 319.833 40.576,319.749 40.532,319.641 40.599 C 319.525 40.671,319.494 40.645,319.563 40.534 C 319.656 40.383,318.747 38.978,318.355 38.667 C 318.297 38.621,318.121 38.358,317.963 38.083 C 317.804 37.808,317.593 37.604,317.492 37.629 C 317.391 37.654,317.356 37.598,317.414 37.504 C 317.472 37.410,317.440 37.333,317.343 37.333 C 317.246 37.333,317.167 37.221,317.167 37.083 C 317.167 36.946,317.090 36.833,316.996 36.833 C 316.902 36.833,316.752 36.641,316.663 36.407 C 316.563 36.143,316.426 36.026,316.305 36.101 C 316.176 36.181,316.144 36.132,316.212 35.956 C 316.322 35.669,315.961 35.261,315.768 35.455 C 315.702 35.520,315.696 35.450,315.754 35.299 C 315.823 35.121,315.739 34.961,315.513 34.840 C 315.322 34.738,315.167 34.545,315.167 34.411 C 315.167 34.277,315.051 34.167,314.909 34.167 C 314.768 34.167,314.671 34.073,314.694 33.958 C 314.757 33.649,314.342 32.975,314.158 33.089 C 314.019 33.174,313.974 33.065,314.011 32.737 C 314.017 32.685,313.867 32.507,313.678 32.343 C 313.488 32.179,313.333 31.959,313.333 31.855 C 313.333 31.752,313.258 31.667,313.167 31.667 C 313.075 31.667,313.019 31.573,313.042 31.458 C 313.065 31.344,312.990 31.269,312.875 31.292 C 312.760 31.315,312.683 31.277,312.702 31.208 C 312.771 30.966,312.319 30.333,312.077 30.333 C 311.943 30.333,311.833 30.254,311.833 30.157 C 311.833 30.060,311.927 30.035,312.042 30.102 C 312.156 30.169,312.100 30.045,311.917 29.826 C 311.308 29.098,311.207 29.015,311.077 29.133 C 311.005 29.197,310.995 29.116,311.054 28.952 C 311.121 28.765,311.069 28.619,310.914 28.559 C 310.778 28.507,310.667 28.394,310.667 28.308 C 310.667 28.152,310.496 27.914,309.958 27.321 C 309.798 27.145,309.723 26.998,309.792 26.994 C 309.860 26.991,309.751 26.851,309.549 26.682 C 309.346 26.513,309.222 26.334,309.271 26.284 C 309.321 26.234,309.205 26.110,309.014 26.008 C 308.823 25.905,308.667 25.716,308.667 25.587 C 308.667 25.458,308.500 25.235,308.296 25.093 C 308.093 24.950,307.983 24.833,308.052 24.833 C 308.122 24.833,308.097 24.681,307.998 24.495 C 307.898 24.309,307.744 24.203,307.654 24.258 C 307.565 24.313,307.502 24.296,307.516 24.221 C 307.574 23.883,307.486 23.656,307.333 23.750 C 307.239 23.808,307.167 23.668,307.167 23.427 C 307.167 23.192,307.260 22.999,307.375 22.999 C 307.633 22.997,310.333 20.289,310.333 20.032 C 310.333 19.836,310.995 19.404,311.205 19.464 C 311.273 19.483,311.374 19.311,311.432 19.082 C 311.489 18.854,311.585 18.667,311.645 18.667 C 311.705 18.667,311.951 18.484,312.192 18.260 C 312.433 18.036,312.676 17.899,312.732 17.954 C 312.788 18.010,312.833 17.926,312.833 17.768 C 312.833 17.610,312.908 17.527,313.000 17.583 C 313.092 17.640,313.167 17.606,313.167 17.508 C 313.167 17.287,314.027 16.305,314.131 16.408 C 314.219 16.497,316.833 13.947,316.833 13.771 C 316.833 13.705,317.021 13.464,317.250 13.235 C 317.479 13.006,317.667 12.909,317.667 13.020 C 317.667 13.131,317.723 13.166,317.792 13.097 C 317.860 13.028,317.917 12.887,317.917 12.783 C 317.917 12.678,318.090 12.507,318.302 12.401 C 318.918 12.094,319.632 11.332,319.588 11.029 C 319.566 10.875,319.581 10.849,319.622 10.971 C 319.680 11.143,319.766 11.129,320.011 10.907 C 320.184 10.750,320.278 10.538,320.219 10.436 C 320.161 10.334,320.175 10.306,320.250 10.374 C 320.395 10.505,321.866 9.089,322.031 8.661 C 322.083 8.524,322.342 8.301,322.605 8.167 C 323.198 7.864,324.600 6.509,324.538 6.298 C 324.512 6.212,324.557 6.182,324.637 6.232 C 324.835 6.354,327.525 3.584,327.372 3.415 C 327.305 3.341,327.337 3.330,327.443 3.390 C 327.550 3.451,327.821 3.281,328.050 3.010 C 328.277 2.740,328.509 2.564,328.565 2.620 C 328.621 2.676,328.667 2.597,328.667 2.444 C 328.667 2.292,328.724 2.167,328.795 2.167 C 328.996 2.167,328.887 0.970,328.674 0.838 C 328.569 0.773,328.495 0.651,328.511 0.568 C 328.620 -0.010,328.613 -0.011,322.625 0.037 C 317.505 0.077,316.757 0.115,316.806 0.333 C 316.836 0.471,316.804 0.526,316.733 0.455 C 316.562 0.284,315.485 1.341,315.616 1.552 C 315.672 1.643,315.642 1.671,315.548 1.613 C 315.332 1.479,314.790 2.063,314.958 2.249 C 315.027 2.325,315.000 2.340,314.899 2.282 C 314.725 2.182,314.032 2.775,314.010 3.042 C 314.005 3.110,313.955 3.159,313.901 3.150 C 313.692 3.116,312.850 4.059,312.948 4.218 C 313.005 4.310,312.978 4.340,312.889 4.285 C 312.673 4.151,308.952 7.893,309.119 8.077 C 309.191 8.156,309.169 8.174,309.071 8.118 C 308.869 8.003,306.275 10.538,306.412 10.717 C 306.460 10.781,306.447 10.793,306.383 10.744 C 306.209 10.612,301.001 15.867,301.118 16.056 C 301.173 16.145,301.145 16.173,301.056 16.118 C 300.899 16.021,297.384 19.415,297.294 19.750 C 297.270 19.842,297.194 19.898,297.125 19.875 C 297.056 19.852,297.019 19.921,297.042 20.028 C 297.065 20.135,296.911 20.312,296.701 20.422 C 296.491 20.532,295.526 21.422,294.556 22.401 C 293.586 23.381,292.765 24.154,292.732 24.121 C 292.698 24.087,292.668 18.834,292.664 12.447 C 292.660 3.867,292.608 0.833,292.468 0.833 C 292.363 0.833,292.328 0.783,292.389 0.722 C 292.451 0.661,292.375 0.471,292.220 0.301 C 291.808 -0.156,282.956 -0.155,283.119 0.302 M336.852 0.228 C 336.713 0.395,336.653 7.721,336.624 27.853 L 336.586 55.250 336.500 28.167 L 336.414 1.083 336.415 28.441 C 336.417 54.820,336.428 55.811,336.725 56.139 C 337.019 56.464,337.224 56.480,341.319 56.494 L 345.604 56.509 346.094 56.089 L 346.583 55.668 346.583 28.236 L 346.583 0.804 346.116 0.402 L 345.648 0.000 341.344 0.000 C 337.909 0.000,337.003 0.046,336.852 0.228 M355.090 0.178 C 355.151 0.276,355.061 0.392,354.892 0.436 C 354.602 0.512,354.586 0.724,354.632 3.858 C 354.663 6.033,354.619 7.274,354.504 7.412 C 354.264 7.701,354.434 8.075,354.926 8.338 C 355.150 8.458,355.333 8.629,355.333 8.718 C 355.333 9.291,355.789 9.323,364.125 9.328 L 372.333 9.333 372.359 32.375 C 372.373 45.048,372.402 55.492,372.423 55.583 C 372.444 55.675,372.470 55.844,372.481 55.958 C 372.491 56.073,372.594 56.148,372.708 56.125 C 372.823 56.102,372.899 56.173,372.878 56.282 C 372.849 56.431,373.952 56.484,377.330 56.495 L 381.820 56.509 382.116 56.058 C 382.492 55.484,382.446 58.530,382.475 32.292 L 382.500 9.333 390.612 9.333 C 398.099 9.333,398.749 9.311,399.057 9.042 C 399.298 8.831,399.352 8.820,399.252 9.000 C 399.175 9.137,399.313 9.068,399.556 8.846 L 400.000 8.442 400.000 4.421 C 400.000 1.516,399.945 0.345,399.800 0.200 C 399.529 -0.071,354.923 -0.093,355.090 0.178 M346.458 41.695 C 346.434 49.150,346.415 43.100,346.415 28.250 C 346.415 13.400,346.434 7.300,346.458 14.695 C 346.482 22.090,346.482 34.240,346.458 41.695 M238.792 29.542 C 238.767 34.698,238.747 30.479,238.747 20.167 C 238.747 9.854,238.767 5.635,238.792 10.792 C 238.816 15.948,238.816 24.385,238.792 29.542 M82.500 9.329 C 82.912 9.407,83.430 9.527,83.651 9.595 C 83.903 9.673,84.014 9.658,83.950 9.554 C 83.894 9.463,83.957 9.389,84.091 9.389 C 84.224 9.389,84.333 9.460,84.333 9.547 C 84.333 9.634,84.478 9.668,84.656 9.621 C 84.833 9.575,85.120 9.636,85.294 9.758 C 85.468 9.879,85.750 9.958,85.921 9.933 C 86.092 9.908,86.489 10.062,86.802 10.275 C 87.116 10.488,87.439 10.621,87.520 10.571 C 87.601 10.521,87.667 10.572,87.667 10.685 C 87.667 10.797,87.712 10.843,87.768 10.788 C 87.823 10.732,87.955 10.756,88.059 10.841 C 89.049 11.642,89.321 11.833,89.465 11.833 C 89.556 11.833,89.676 11.951,89.731 12.094 C 89.787 12.240,89.916 12.302,90.025 12.235 C 90.137 12.165,90.173 12.188,90.111 12.288 C 90.052 12.383,90.341 12.772,90.752 13.151 C 91.163 13.530,91.500 13.911,91.500 13.998 C 91.500 14.084,91.644 14.232,91.821 14.327 C 91.997 14.421,92.274 14.799,92.436 15.166 C 92.598 15.533,92.796 15.833,92.875 15.833 C 92.955 15.833,92.977 15.902,92.925 15.986 C 92.874 16.070,92.911 16.165,93.008 16.197 C 93.161 16.248,93.274 16.558,93.321 17.052 C 93.328 17.126,93.420 17.133,93.526 17.067 C 93.637 16.998,93.673 17.021,93.611 17.122 C 93.481 17.331,93.809 18.333,94.007 18.333 C 94.084 18.333,94.119 18.483,94.083 18.667 C 94.048 18.850,94.074 19.000,94.141 19.000 C 94.208 19.000,94.275 19.162,94.290 19.360 C 94.304 19.558,94.403 19.774,94.509 19.839 C 94.649 19.926,94.651 19.990,94.517 20.073 C 94.383 20.155,94.388 20.287,94.533 20.552 C 94.643 20.752,94.748 21.217,94.766 21.583 C 94.798 22.275,94.840 22.468,95.109 23.167 C 95.197 23.396,95.246 24.183,95.218 24.917 C 95.190 25.650,95.210 26.363,95.263 26.500 C 95.407 26.873,95.436 29.333,95.296 29.333 C 95.230 29.333,95.189 30.083,95.205 30.999 C 95.224 32.049,95.165 32.735,95.047 32.853 C 94.944 32.956,94.896 33.136,94.941 33.253 C 94.986 33.371,94.943 33.516,94.845 33.576 C 94.616 33.718,94.611 34.500,94.839 34.500 C 94.948 34.500,94.934 34.639,94.804 34.875 C 94.689 35.081,94.612 35.306,94.631 35.375 C 94.651 35.444,94.597 35.500,94.511 35.500 C 94.426 35.500,94.383 35.801,94.417 36.170 C 94.452 36.558,94.413 36.799,94.322 36.743 C 94.237 36.690,94.161 36.708,94.154 36.782 C 94.112 37.242,93.973 37.749,93.846 37.904 C 93.765 38.002,93.673 38.271,93.641 38.500 C 93.609 38.729,93.494 39.011,93.385 39.127 C 93.276 39.243,93.216 39.488,93.251 39.673 C 93.288 39.862,93.245 39.965,93.154 39.909 C 93.017 39.824,92.608 40.641,92.652 40.912 C 92.660 40.960,92.517 41.150,92.333 41.333 C 92.150 41.517,92.000 41.779,92.000 41.917 C 92.000 42.054,91.925 42.167,91.833 42.167 C 91.742 42.167,91.667 42.238,91.667 42.326 C 91.667 42.413,91.498 42.666,91.292 42.888 C 91.085 43.111,90.673 43.562,90.375 43.892 C 90.077 44.221,89.831 44.437,89.828 44.370 C 89.825 44.304,89.713 44.396,89.578 44.574 C 89.443 44.751,89.333 44.842,89.333 44.775 C 89.333 44.708,89.132 44.840,88.886 45.068 C 88.640 45.296,88.377 45.444,88.302 45.397 C 88.226 45.350,88.121 45.425,88.068 45.562 C 88.016 45.700,87.865 45.771,87.734 45.721 C 87.581 45.662,87.527 45.711,87.583 45.856 C 87.646 46.019,87.499 46.093,87.066 46.116 C 86.734 46.135,86.321 46.277,86.148 46.434 C 85.975 46.590,85.833 46.660,85.833 46.589 C 85.833 46.517,85.706 46.562,85.551 46.688 C 85.360 46.843,85.309 46.850,85.395 46.708 C 85.548 46.454,85.301 46.432,85.055 46.679 C 84.957 46.777,84.536 46.870,84.120 46.886 C 83.705 46.902,83.399 46.971,83.441 47.039 C 83.483 47.107,83.400 47.118,83.257 47.063 C 83.113 47.008,82.903 47.037,82.790 47.127 C 82.511 47.349,81.506 47.478,81.399 47.306 C 81.352 47.229,78.318 47.167,74.657 47.167 L 68.000 47.167 68.000 28.252 L 68.000 9.337 74.042 9.292 C 77.365 9.266,80.458 9.232,80.917 9.216 C 81.375 9.200,82.087 9.251,82.500 9.329 M25.877 13.078 C 25.816 13.361,25.835 13.376,25.993 13.167 C 26.152 12.955,26.175 12.968,26.137 13.250 C 26.112 13.433,26.164 13.696,26.252 13.833 C 26.340 13.971,26.416 14.233,26.422 14.417 C 26.427 14.600,26.511 14.735,26.609 14.716 C 26.706 14.698,26.765 14.875,26.739 15.110 C 26.682 15.629,26.817 16.030,27.009 15.911 C 27.086 15.864,27.123 15.959,27.091 16.125 C 27.060 16.290,27.170 16.704,27.336 17.046 C 27.502 17.387,27.588 17.668,27.527 17.669 C 27.466 17.671,27.514 17.733,27.633 17.809 C 27.752 17.884,27.869 18.164,27.894 18.431 C 27.918 18.698,28.023 18.899,28.126 18.878 C 28.231 18.857,28.284 18.988,28.247 19.180 C 28.173 19.566,28.631 20.657,28.984 20.933 C 29.112 21.034,29.164 21.202,29.099 21.308 C 29.033 21.415,29.077 21.501,29.198 21.503 C 29.357 21.504,29.348 21.549,29.167 21.667 C 29.000 21.774,28.986 21.829,29.125 21.831 C 29.240 21.832,29.324 21.890,29.314 21.958 C 29.303 22.027,29.312 22.140,29.334 22.208 C 29.435 22.517,29.461 22.615,29.584 23.138 C 29.678 23.542,29.755 23.633,29.864 23.472 C 29.975 23.309,30.004 23.338,29.973 23.583 C 29.950 23.767,30.025 24.085,30.138 24.292 C 30.252 24.498,30.301 24.667,30.246 24.667 C 30.192 24.667,30.259 24.873,30.394 25.125 C 30.696 25.687,30.883 26.169,30.926 26.500 C 30.944 26.637,31.148 27.175,31.381 27.695 C 31.613 28.215,31.760 28.684,31.707 28.737 C 31.654 28.790,31.703 28.833,31.815 28.833 C 31.928 28.833,31.977 28.903,31.924 28.988 C 31.871 29.074,31.905 29.191,32.000 29.250 C 32.095 29.309,32.133 29.419,32.086 29.496 C 31.926 29.754,32.202 30.189,32.462 30.089 C 32.666 30.011,32.676 30.039,32.512 30.236 C 32.361 30.418,32.357 30.566,32.496 30.826 L 32.682 31.174 25.841 31.129 C 21.773 31.102,19.000 31.145,19.000 31.236 C 19.000 31.320,18.950 31.339,18.890 31.279 C 18.829 31.218,18.909 31.026,19.066 30.852 C 19.223 30.679,19.373 30.345,19.398 30.111 C 19.422 29.878,19.530 29.581,19.637 29.453 C 19.743 29.324,19.781 29.170,19.721 29.110 C 19.660 29.049,19.682 29.000,19.769 29.000 C 19.856 29.000,19.944 28.798,19.964 28.551 C 19.985 28.304,20.095 28.043,20.209 27.970 C 20.323 27.898,20.352 27.837,20.272 27.836 C 20.193 27.834,20.255 27.640,20.410 27.403 C 20.565 27.167,20.650 26.863,20.598 26.728 C 20.546 26.593,20.570 26.524,20.651 26.574 C 20.778 26.652,20.931 26.302,21.009 25.750 C 21.022 25.658,21.114 25.433,21.213 25.250 C 21.313 25.067,21.414 24.736,21.438 24.515 C 21.463 24.294,21.581 24.052,21.700 23.976 C 21.819 23.900,21.859 23.837,21.788 23.836 C 21.717 23.834,21.773 23.659,21.913 23.445 C 22.053 23.231,22.118 23.006,22.056 22.945 C 21.995 22.884,22.035 22.833,22.146 22.833 C 22.257 22.833,22.329 22.740,22.306 22.625 C 22.282 22.510,22.357 22.248,22.471 22.042 C 22.585 21.835,22.634 21.667,22.580 21.667 C 22.526 21.667,22.591 21.460,22.726 21.208 C 23.079 20.547,23.420 19.607,23.367 19.441 C 23.342 19.362,23.412 19.189,23.523 19.056 C 23.633 18.923,23.745 18.619,23.770 18.380 C 23.795 18.142,23.914 17.885,24.033 17.809 C 24.152 17.734,24.192 17.671,24.122 17.669 C 24.051 17.668,24.142 17.375,24.324 17.018 C 24.506 16.662,24.624 16.210,24.586 16.014 C 24.548 15.817,24.588 15.701,24.675 15.755 C 24.822 15.846,24.907 15.607,24.847 15.272 C 24.832 15.193,24.939 14.947,25.084 14.726 C 25.229 14.505,25.310 14.264,25.265 14.192 C 25.221 14.119,25.296 13.842,25.434 13.577 C 25.572 13.311,25.640 12.918,25.586 12.701 C 25.503 12.372,25.525 12.343,25.718 12.524 C 25.846 12.643,25.917 12.892,25.877 13.078 " stroke="none" fill="#6464f4" fill-rule="evenodd"></path><path id="path1" d="M128.000 0.798 C 128.000 0.909,128.061 1.000,128.134 1.000 C 128.208 1.000,128.356 1.206,128.462 1.458 C 128.637 1.876,128.646 1.880,128.559 1.500 C 128.452 1.032,128.000 0.463,128.000 0.798 M336.581 27.917 C 336.581 42.950,336.601 49.075,336.625 41.529 C 336.649 33.982,336.649 21.682,336.625 14.195 C 336.601 6.709,336.581 12.883,336.581 27.917 M354.438 1.188 C 354.273 2.009,354.316 7.470,354.488 7.576 C 354.581 7.633,354.649 6.272,354.660 4.169 C 354.678 0.699,354.639 0.180,354.438 1.188 M169.067 1.359 C 168.994 1.478,169.022 1.506,169.141 1.433 C 169.286 1.343,169.333 7.905,169.333 28.143 C 169.333 48.855,169.288 54.987,169.133 55.039 C 169.008 55.081,169.040 55.146,169.217 55.214 C 169.483 55.316,169.500 53.658,169.500 28.245 C 169.500 11.436,169.441 1.167,169.343 1.167 C 169.257 1.167,169.133 1.253,169.067 1.359 M346.415 28.250 C 346.415 43.100,346.434 49.150,346.458 41.695 C 346.482 34.240,346.482 22.090,346.458 14.695 C 346.434 7.300,346.415 13.400,346.415 28.250 M238.747 20.167 C 238.747 30.479,238.767 34.698,238.792 29.542 C 238.816 24.385,238.816 15.948,238.792 10.792 C 238.767 5.635,238.747 9.854,238.747 20.167 M322.336 8.326 C 322.108 8.501,321.964 8.686,322.016 8.738 C 322.067 8.790,322.286 8.645,322.501 8.416 C 322.965 7.921,322.905 7.888,322.336 8.326 M80.458 9.287 C 80.756 9.324,81.244 9.324,81.542 9.287 C 81.840 9.250,81.596 9.220,81.000 9.220 C 80.404 9.220,80.160 9.250,80.458 9.287 M68.081 28.250 C 68.081 38.700,68.101 43.000,68.125 37.805 C 68.149 32.609,68.149 24.059,68.125 18.805 C 68.101 13.550,68.081 17.800,68.081 28.250 M317.192 13.283 C 316.976 13.506,316.832 13.721,316.871 13.760 C 316.911 13.800,317.119 13.645,317.333 13.417 C 317.548 13.188,317.692 12.974,317.653 12.940 C 317.615 12.906,317.407 13.060,317.192 13.283 M311.851 18.510 C 311.632 18.692,311.488 18.877,311.531 18.920 C 311.574 18.963,311.786 18.811,312.001 18.583 C 312.468 18.085,312.401 18.052,311.851 18.510 M310.669 19.659 C 310.441 19.834,310.297 20.020,310.349 20.071 C 310.401 20.123,310.619 19.978,310.834 19.749 C 311.299 19.255,311.238 19.222,310.669 19.659 M105.447 23.792 C 105.408 23.860,105.435 24.067,105.509 24.250 C 105.626 24.541,105.645 24.525,105.655 24.125 C 105.667 23.673,105.589 23.548,105.447 23.792 M95.167 27.889 C 95.167 28.683,95.223 29.333,95.292 29.333 C 95.437 29.333,95.411 26.689,95.265 26.543 C 95.211 26.489,95.167 27.094,95.167 27.889 M43.500 31.532 C 43.500 31.585,43.612 31.843,43.749 32.106 C 43.886 32.369,43.996 32.471,43.994 32.333 C 43.991 32.196,43.879 31.938,43.745 31.760 C 43.610 31.582,43.500 31.480,43.500 31.532 M129.141 31.750 C 129.229 31.933,129.314 32.158,129.331 32.250 C 129.382 32.529,129.500 32.571,129.500 32.310 C 129.500 32.174,129.383 31.918,129.241 31.740 C 128.986 31.422,128.984 31.422,129.141 31.750 M295.917 33.965 C 295.642 34.213,295.269 34.604,295.088 34.833 C 294.908 35.063,295.152 34.878,295.630 34.423 C 296.414 33.678,296.587 33.486,296.458 33.507 C 296.435 33.510,296.192 33.717,295.917 33.965 M131.884 39.787 C 131.913 39.991,131.988 40.210,132.051 40.273 C 132.228 40.450,132.183 39.950,131.997 39.667 C 131.866 39.468,131.843 39.493,131.884 39.787 M132.190 40.833 C 132.190 40.971,132.255 41.233,132.333 41.417 C 132.424 41.627,132.477 41.658,132.477 41.500 C 132.477 41.362,132.412 41.100,132.333 40.917 C 132.243 40.707,132.190 40.676,132.190 40.833 M81.397 47.301 C 81.477 47.430,82.667 47.365,82.667 47.232 C 82.667 47.196,82.362 47.167,81.990 47.167 C 81.618 47.167,81.351 47.227,81.397 47.301 M88.167 55.663 C 88.167 55.741,88.357 55.783,88.589 55.758 C 89.203 55.690,89.253 55.553,88.669 55.537 C 88.393 55.529,88.167 55.586,88.167 55.663 " stroke="none" fill="#6864f4" fill-rule="evenodd"></path><path id="path2" d="M128.000 0.798 C 128.000 0.909,128.061 1.000,128.134 1.000 C 128.208 1.000,128.356 1.206,128.462 1.458 C 128.637 1.876,128.646 1.880,128.559 1.500 C 128.452 1.032,128.000 0.463,128.000 0.798 M336.581 27.917 C 336.581 42.950,336.601 49.075,336.625 41.529 C 336.649 33.982,336.649 21.682,336.625 14.195 C 336.601 6.709,336.581 12.883,336.581 27.917 M354.438 1.188 C 354.273 2.009,354.316 7.470,354.488 7.576 C 354.581 7.633,354.649 6.272,354.660 4.169 C 354.678 0.699,354.639 0.180,354.438 1.188 M169.067 1.359 C 168.994 1.478,169.022 1.506,169.141 1.433 C 169.286 1.343,169.333 7.905,169.333 28.143 C 169.333 48.855,169.288 54.987,169.133 55.039 C 169.008 55.081,169.040 55.146,169.217 55.214 C 169.483 55.316,169.500 53.658,169.500 28.245 C 169.500 11.436,169.441 1.167,169.343 1.167 C 169.257 1.167,169.133 1.253,169.067 1.359 M346.415 28.250 C 346.415 43.100,346.434 49.150,346.458 41.695 C 346.482 34.240,346.482 22.090,346.458 14.695 C 346.434 7.300,346.415 13.400,346.415 28.250 M238.747 20.167 C 238.747 30.479,238.767 34.698,238.792 29.542 C 238.816 24.385,238.816 15.948,238.792 10.792 C 238.767 5.635,238.747 9.854,238.747 20.167 M322.336 8.326 C 322.108 8.501,321.964 8.686,322.016 8.738 C 322.067 8.790,322.286 8.645,322.501 8.416 C 322.965 7.921,322.905 7.888,322.336 8.326 M80.458 9.287 C 80.756 9.324,81.244 9.324,81.542 9.287 C 81.840 9.250,81.596 9.220,81.000 9.220 C 80.404 9.220,80.160 9.250,80.458 9.287 M68.081 28.250 C 68.081 38.700,68.101 43.000,68.125 37.805 C 68.149 32.609,68.149 24.059,68.125 18.805 C 68.101 13.550,68.081 17.800,68.081 28.250 M317.192 13.283 C 316.976 13.506,316.832 13.721,316.871 13.760 C 316.911 13.800,317.119 13.645,317.333 13.417 C 317.548 13.188,317.692 12.974,317.653 12.940 C 317.615 12.906,317.407 13.060,317.192 13.283 M311.851 18.510 C 311.632 18.692,311.488 18.877,311.531 18.920 C 311.574 18.963,311.786 18.811,312.001 18.583 C 312.468 18.085,312.401 18.052,311.851 18.510 M310.669 19.659 C 310.441 19.834,310.297 20.020,310.349 20.071 C 310.401 20.123,310.619 19.978,310.834 19.749 C 311.299 19.255,311.238 19.222,310.669 19.659 M105.447 23.792 C 105.408 23.860,105.435 24.067,105.509 24.250 C 105.626 24.541,105.645 24.525,105.655 24.125 C 105.667 23.673,105.589 23.548,105.447 23.792 M95.167 27.889 C 95.167 28.683,95.223 29.333,95.292 29.333 C 95.437 29.333,95.411 26.689,95.265 26.543 C 95.211 26.489,95.167 27.094,95.167 27.889 M43.500 31.532 C 43.500 31.585,43.612 31.843,43.749 32.106 C 43.886 32.369,43.996 32.471,43.994 32.333 C 43.991 32.196,43.879 31.938,43.745 31.760 C 43.610 31.582,43.500 31.480,43.500 31.532 M129.141 31.750 C 129.229 31.933,129.314 32.158,129.331 32.250 C 129.382 32.529,129.500 32.571,129.500 32.310 C 129.500 32.174,129.383 31.918,129.241 31.740 C 128.986 31.422,128.984 31.422,129.141 31.750 M295.917 33.965 C 295.642 34.213,295.269 34.604,295.088 34.833 C 294.908 35.063,295.152 34.878,295.630 34.423 C 296.414 33.678,296.587 33.486,296.458 33.507 C 296.435 33.510,296.192 33.717,295.917 33.965 M131.884 39.787 C 131.913 39.991,131.988 40.210,132.051 40.273 C 132.228 40.450,132.183 39.950,131.997 39.667 C 131.866 39.468,131.843 39.493,131.884 39.787 M132.190 40.833 C 132.190 40.971,132.255 41.233,132.333 41.417 C 132.424 41.627,132.477 41.658,132.477 41.500 C 132.477 41.362,132.412 41.100,132.333 40.917 C 132.243 40.707,132.190 40.676,132.190 40.833 M81.397 47.301 C 81.477 47.430,82.667 47.365,82.667 47.232 C 82.667 47.196,82.362 47.167,81.990 47.167 C 81.618 47.167,81.351 47.227,81.397 47.301 M88.167 55.663 C 88.167 55.741,88.357 55.783,88.589 55.758 C 89.203 55.690,89.253 55.553,88.669 55.537 C 88.393 55.529,88.167 55.586,88.167 55.663 " stroke="none" fill="#6864f4" fill-rule="evenodd"></path><path id="path3" d="M128.000 0.798 C 128.000 0.909,128.061 1.000,128.134 1.000 C 128.208 1.000,128.356 1.206,128.462 1.458 C 128.637 1.876,128.646 1.880,128.559 1.500 C 128.452 1.032,128.000 0.463,128.000 0.798 M336.581 27.917 C 336.581 42.950,336.601 49.075,336.625 41.529 C 336.649 33.982,336.649 21.682,336.625 14.195 C 336.601 6.709,336.581 12.883,336.581 27.917 M354.438 1.188 C 354.273 2.009,354.316 7.470,354.488 7.576 C 354.581 7.633,354.649 6.272,354.660 4.169 C 354.678 0.699,354.639 0.180,354.438 1.188 M169.067 1.359 C 168.994 1.478,169.022 1.506,169.141 1.433 C 169.286 1.343,169.333 7.905,169.333 28.143 C 169.333 48.855,169.288 54.987,169.133 55.039 C 169.008 55.081,169.040 55.146,169.217 55.214 C 169.483 55.316,169.500 53.658,169.500 28.245 C 169.500 11.436,169.441 1.167,169.343 1.167 C 169.257 1.167,169.133 1.253,169.067 1.359 M346.415 28.250 C 346.415 43.100,346.434 49.150,346.458 41.695 C 346.482 34.240,346.482 22.090,346.458 14.695 C 346.434 7.300,346.415 13.400,346.415 28.250 M238.747 20.167 C 238.747 30.479,238.767 34.698,238.792 29.542 C 238.816 24.385,238.816 15.948,238.792 10.792 C 238.767 5.635,238.747 9.854,238.747 20.167 M322.336 8.326 C 322.108 8.501,321.964 8.686,322.016 8.738 C 322.067 8.790,322.286 8.645,322.501 8.416 C 322.965 7.921,322.905 7.888,322.336 8.326 M80.458 9.287 C 80.756 9.324,81.244 9.324,81.542 9.287 C 81.840 9.250,81.596 9.220,81.000 9.220 C 80.404 9.220,80.160 9.250,80.458 9.287 M68.081 28.250 C 68.081 38.700,68.101 43.000,68.125 37.805 C 68.149 32.609,68.149 24.059,68.125 18.805 C 68.101 13.550,68.081 17.800,68.081 28.250 M317.192 13.283 C 316.976 13.506,316.832 13.721,316.871 13.760 C 316.911 13.800,317.119 13.645,317.333 13.417 C 317.548 13.188,317.692 12.974,317.653 12.940 C 317.615 12.906,317.407 13.060,317.192 13.283 M311.851 18.510 C 311.632 18.692,311.488 18.877,311.531 18.920 C 311.574 18.963,311.786 18.811,312.001 18.583 C 312.468 18.085,312.401 18.052,311.851 18.510 M310.669 19.659 C 310.441 19.834,310.297 20.020,310.349 20.071 C 310.401 20.123,310.619 19.978,310.834 19.749 C 311.299 19.255,311.238 19.222,310.669 19.659 M105.447 23.792 C 105.408 23.860,105.435 24.067,105.509 24.250 C 105.626 24.541,105.645 24.525,105.655 24.125 C 105.667 23.673,105.589 23.548,105.447 23.792 M95.167 27.889 C 95.167 28.683,95.223 29.333,95.292 29.333 C 95.437 29.333,95.411 26.689,95.265 26.543 C 95.211 26.489,95.167 27.094,95.167 27.889 M43.500 31.532 C 43.500 31.585,43.612 31.843,43.749 32.106 C 43.886 32.369,43.996 32.471,43.994 32.333 C 43.991 32.196,43.879 31.938,43.745 31.760 C 43.610 31.582,43.500 31.480,43.500 31.532 M129.141 31.750 C 129.229 31.933,129.314 32.158,129.331 32.250 C 129.382 32.529,129.500 32.571,129.500 32.310 C 129.500 32.174,129.383 31.918,129.241 31.740 C 128.986 31.422,128.984 31.422,129.141 31.750 M295.917 33.965 C 295.642 34.213,295.269 34.604,295.088 34.833 C 294.908 35.063,295.152 34.878,295.630 34.423 C 296.414 33.678,296.587 33.486,296.458 33.507 C 296.435 33.510,296.192 33.717,295.917 33.965 M131.884 39.787 C 131.913 39.991,131.988 40.210,132.051 40.273 C 132.228 40.450,132.183 39.950,131.997 39.667 C 131.866 39.468,131.843 39.493,131.884 39.787 M132.190 40.833 C 132.190 40.971,132.255 41.233,132.333 41.417 C 132.424 41.627,132.477 41.658,132.477 41.500 C 132.477 41.362,132.412 41.100,132.333 40.917 C 132.243 40.707,132.190 40.676,132.190 40.833 M81.397 47.301 C 81.477 47.430,82.667 47.365,82.667 47.232 C 82.667 47.196,82.362 47.167,81.990 47.167 C 81.618 47.167,81.351 47.227,81.397 47.301 M88.167 55.663 C 88.167 55.741,88.357 55.783,88.589 55.758 C 89.203 55.690,89.253 55.553,88.669 55.537 C 88.393 55.529,88.167 55.586,88.167 55.663 " stroke="none" fill="#6864f4" fill-rule="evenodd"></path><path id="path4" d="M128.000 0.798 C 128.000 0.909,128.061 1.000,128.134 1.000 C 128.208 1.000,128.356 1.206,128.462 1.458 C 128.637 1.876,128.646 1.880,128.559 1.500 C 128.452 1.032,128.000 0.463,128.000 0.798 M336.581 27.917 C 336.581 42.950,336.601 49.075,336.625 41.529 C 336.649 33.982,336.649 21.682,336.625 14.195 C 336.601 6.709,336.581 12.883,336.581 27.917 M354.438 1.188 C 354.273 2.009,354.316 7.470,354.488 7.576 C 354.581 7.633,354.649 6.272,354.660 4.169 C 354.678 0.699,354.639 0.180,354.438 1.188 M169.067 1.359 C 168.994 1.478,169.022 1.506,169.141 1.433 C 169.286 1.343,169.333 7.905,169.333 28.143 C 169.333 48.855,169.288 54.987,169.133 55.039 C 169.008 55.081,169.040 55.146,169.217 55.214 C 169.483 55.316,169.500 53.658,169.500 28.245 C 169.500 11.436,169.441 1.167,169.343 1.167 C 169.257 1.167,169.133 1.253,169.067 1.359 M346.415 28.250 C 346.415 43.100,346.434 49.150,346.458 41.695 C 346.482 34.240,346.482 22.090,346.458 14.695 C 346.434 7.300,346.415 13.400,346.415 28.250 M238.747 20.167 C 238.747 30.479,238.767 34.698,238.792 29.542 C 238.816 24.385,238.816 15.948,238.792 10.792 C 238.767 5.635,238.747 9.854,238.747 20.167 M322.336 8.326 C 322.108 8.501,321.964 8.686,322.016 8.738 C 322.067 8.790,322.286 8.645,322.501 8.416 C 322.965 7.921,322.905 7.888,322.336 8.326 M80.458 9.287 C 80.756 9.324,81.244 9.324,81.542 9.287 C 81.840 9.250,81.596 9.220,81.000 9.220 C 80.404 9.220,80.160 9.250,80.458 9.287 M68.081 28.250 C 68.081 38.700,68.101 43.000,68.125 37.805 C 68.149 32.609,68.149 24.059,68.125 18.805 C 68.101 13.550,68.081 17.800,68.081 28.250 M317.192 13.283 C 316.976 13.506,316.832 13.721,316.871 13.760 C 316.911 13.800,317.119 13.645,317.333 13.417 C 317.548 13.188,317.692 12.974,317.653 12.940 C 317.615 12.906,317.407 13.060,317.192 13.283 M311.851 18.510 C 311.632 18.692,311.488 18.877,311.531 18.920 C 311.574 18.963,311.786 18.811,312.001 18.583 C 312.468 18.085,312.401 18.052,311.851 18.510 M310.669 19.659 C 310.441 19.834,310.297 20.020,310.349 20.071 C 310.401 20.123,310.619 19.978,310.834 19.749 C 311.299 19.255,311.238 19.222,310.669 19.659 M105.447 23.792 C 105.408 23.860,105.435 24.067,105.509 24.250 C 105.626 24.541,105.645 24.525,105.655 24.125 C 105.667 23.673,105.589 23.548,105.447 23.792 M95.167 27.889 C 95.167 28.683,95.223 29.333,95.292 29.333 C 95.437 29.333,95.411 26.689,95.265 26.543 C 95.211 26.489,95.167 27.094,95.167 27.889 M43.500 31.532 C 43.500 31.585,43.612 31.843,43.749 32.106 C 43.886 32.369,43.996 32.471,43.994 32.333 C 43.991 32.196,43.879 31.938,43.745 31.760 C 43.610 31.582,43.500 31.480,43.500 31.532 M129.141 31.750 C 129.229 31.933,129.314 32.158,129.331 32.250 C 129.382 32.529,129.500 32.571,129.500 32.310 C 129.500 32.174,129.383 31.918,129.241 31.740 C 128.986 31.422,128.984 31.422,129.141 31.750 M295.917 33.965 C 295.642 34.213,295.269 34.604,295.088 34.833 C 294.908 35.063,295.152 34.878,295.630 34.423 C 296.414 33.678,296.587 33.486,296.458 33.507 C 296.435 33.510,296.192 33.717,295.917 33.965 M131.884 39.787 C 131.913 39.991,131.988 40.210,132.051 40.273 C 132.228 40.450,132.183 39.950,131.997 39.667 C 131.866 39.468,131.843 39.493,131.884 39.787 M132.190 40.833 C 132.190 40.971,132.255 41.233,132.333 41.417 C 132.424 41.627,132.477 41.658,132.477 41.500 C 132.477 41.362,132.412 41.100,132.333 40.917 C 132.243 40.707,132.190 40.676,132.190 40.833 M81.397 47.301 C 81.477 47.430,82.667 47.365,82.667 47.232 C 82.667 47.196,82.362 47.167,81.990 47.167 C 81.618 47.167,81.351 47.227,81.397 47.301 M88.167 55.663 C 88.167 55.741,88.357 55.783,88.589 55.758 C 89.203 55.690,89.253 55.553,88.669 55.537 C 88.393 55.529,88.167 55.586,88.167 55.663 " stroke="none" fill="#6864f4" fill-rule="evenodd"></path></g></svg>